M48
INCH
T287C0.014
T286C0.079
T285C0.039
%
T287
X016449Y002804
X016449Y003222
X016031Y002804
X016031Y003222
X016449Y004474
X016449Y003639
X016449Y004057
X016031Y003639
X016031Y004057
X016031Y004474
X014002Y016026
X014022Y015337
X018611Y019026
X018150Y015315
X016378Y014961
X015906Y016732
X014180Y011637
X014972Y012292
X015597Y010928
X016033Y011270
X017467Y013192
X017244Y011831
X016866Y004892
X018537Y004892
X018119Y004892
X017701Y004892
X017284Y004892
X016449Y004892
X016031Y004892
X016031Y005310
X016031Y005727
X016866Y006145
X016449Y006145
X016866Y006562
X016449Y006562
X016031Y006145
X016031Y006562
X018537Y006145
X018537Y005310
X018537Y005727
X018119Y006145
X018119Y006562
X017701Y006145
X017701Y006562
X018537Y006562
X018119Y005310
X018119Y005727
X017701Y005310
X017701Y005727
X017284Y006145
X017284Y006562
X000997Y028278
X000997Y027164
X001276Y028834
X001276Y026607
X001833Y026607
X002529Y027721
X001833Y027721
X001276Y027721
X001485Y027164
X001972Y027164
X001137Y019926
X001693Y019926
X001693Y021039
X001137Y021039
X001137Y021596
X001693Y021596
X001137Y022153
X001693Y022153
X001693Y022710
X001137Y022710
X001693Y023266
X001693Y023823
X001693Y024380
X001693Y025494
X001693Y026050
X001137Y023266
X001137Y023823
X001137Y024380
X001137Y025494
X001137Y026050
X002529Y028278
X001972Y028278
X001485Y028278
X001833Y028834
X002529Y028834
X002529Y029391
X002529Y029948
X002529Y030505
X001415Y029391
X001972Y029391
X001833Y029948
X001276Y029948
X004756Y028834
X004756Y029391
X004756Y029948
X004199Y029948
X004199Y029391
X003642Y029948
X003642Y030505
X003085Y029948
X003085Y030505
X004199Y030505
X004756Y030505
X004756Y031062
X004756Y031618
X004199Y031062
X004199Y031618
X004756Y032175
X004199Y032175
X003642Y032175
X003085Y032175
X001137Y012687
X001693Y012687
X001137Y013244
X001137Y013801
X001137Y014358
X001693Y013244
X001693Y013801
X001693Y014358
X001693Y015471
X001693Y016028
X001137Y015471
X001137Y016028
X001137Y016585
X001137Y018812
X001137Y019369
X001693Y016585
X001693Y018812
X001693Y019369
X003085Y028278
X003642Y028278
X004199Y028278
X004199Y028834
X005833Y026617
X011368Y018812
X008825Y017168
X011128Y017739
X008884Y014215
X013432Y017916
X010361Y015672
X012664Y017483
X012400Y016565
X012653Y015632
X011435Y014728
X011081Y013785
X010732Y014732
X010177Y013785
X012661Y015071
X015735Y017385
X015144Y022129
X015459Y019708
X014160Y019215
X014160Y017956
X014171Y021466
X007683Y021164
X012481Y020596
X012321Y021176
X013169Y020630
X010715Y020259
X010597Y022700
X009731Y022345
X011404Y024668
X009298Y024668
X009691Y019747
X008016Y018933
X008957Y019350
X008091Y019961
X010728Y021527
X013708Y022918
X013038Y029530
X013108Y028069
X012481Y030226
X012481Y030922
X015683Y030853
X016170Y030853
X016518Y030226
X013038Y030226
X012481Y029530
X011577Y029530
X011577Y030226
X011577Y030922
X011577Y031618
X011577Y032314
X012481Y032314
X012481Y031618
X012621Y027234
X017910Y027651
X014778Y027860
X017546Y029196
X015321Y028152
X016050Y028215
T285
X018078Y018873
X017078Y018873
X018078Y019873
X017078Y019873
X018078Y020873
X017078Y020873
T286
X006051Y003370
X006051Y009394
X013518Y003370
X013518Y009394
M30
