G04 start of page 9 for group -4079 idx -4079 *
G04 Title: (unknown), topsilk *
G04 Creator: pcb 20110918 *
G04 CreationDate: So 13 Jul 2014 20:19:28 GMT UTC *
G04 For: ffg *
G04 Format: Gerber/RS-274X *
G04 PCB-Dimensions: 196850 334646 *
G04 PCB-Coordinate-Origin: lower left *
%MOIN*%
%FSLAX25Y25*%
%LNTOPSILK*%
%ADD328C,0.0079*%
%ADD327C,0.0059*%
%ADD326C,0.0100*%
%ADD325C,0.0060*%
%ADD324C,0.0080*%
%ADD323C,0.0250*%
G54D323*X120338Y257902D02*X193173D01*
X101441Y276799D02*X120338Y257902D01*
X101441Y332508D02*Y276799D01*
G54D324*X24171Y90002D02*Y86002D01*
X23171Y85002D01*
X21171D02*X23171D01*
X20171Y86002D02*X21171Y85002D01*
X20171Y89002D02*Y86002D01*
X16171Y89002D02*X24171D01*
X20171Y87402D02*X16171Y85002D01*
X20571Y82602D02*Y79602D01*
X16171Y82602D02*Y78602D01*
Y82602D02*X24171D01*
Y78602D01*
Y76202D02*X16171Y74202D01*
X24171Y72202D01*
X19171Y66202D02*X24171Y62202D01*
X19171Y66202D02*Y61202D01*
X16171Y62202D02*X24171D01*
G54D325*X46120Y256876D02*Y259876D01*
X74120D01*
Y256876D01*
X46120Y238876D02*Y235876D01*
X74120D01*
Y238876D01*
X53070Y235876D02*Y259876D01*
X53570Y235876D02*Y259876D01*
X41407Y219732D02*Y233360D01*
X68815D01*
Y219732D01*
X41407D01*
X50481Y274190D02*Y260562D01*
X30159D02*X50481D01*
X30159Y274190D02*Y260562D01*
Y274190D02*X50481D01*
X50629Y269217D02*Y263705D01*
X52991Y261343D01*
X50629Y269217D02*X52991Y271579D01*
X71101D01*
Y261343D01*
X52991D02*X71101D01*
G54D326*X40434Y333598D02*X75868D01*
X40434Y332811D02*X75868D01*
X40434Y332023D02*X75868D01*
X40434Y331236D02*X75868D01*
X40434Y330448D02*X75868D01*
X40434Y329661D02*X75868D01*
X40434Y333598D02*Y274543D01*
X75868D01*
Y333598D02*Y274543D01*
G54D325*X37524Y240105D02*X30437Y233018D01*
X9964D02*X30437D01*
X9964Y244042D02*Y233018D01*
Y260578D02*Y249554D01*
Y260578D02*X30437D01*
X37524Y253491D01*
Y249554D01*
Y244042D02*Y240105D01*
X37604Y198460D02*X30517Y191373D01*
X10044D02*X30517D01*
X10044Y202397D02*Y191373D01*
Y218933D02*Y207909D01*
Y218933D02*X30517D01*
X37604Y211846D01*
Y207909D01*
Y202397D02*Y198460D01*
G54D327*X40691Y230999D02*Y220763D01*
X20219D02*X40691D01*
X20219Y230999D02*Y220763D01*
Y230999D02*X40691D01*
G54D325*X43330Y168996D02*Y165996D01*
X15330D02*X43330D01*
X15330Y168996D02*Y165996D01*
X43330Y189996D02*Y186996D01*
X15330Y189996D02*X43330D01*
X15330D02*Y186996D01*
X36380Y189996D02*Y165996D01*
X35880Y189996D02*Y165996D01*
X42009Y218738D02*Y211802D01*
Y218738D02*X56031D01*
Y211802D01*
X42009D02*X56031D01*
X54601Y190687D02*X51001Y194287D01*
Y200487D02*Y194287D01*
Y200487D02*X68401D01*
X54601Y190687D02*X68401D01*
Y200487D02*Y190687D01*
X73154Y203635D02*X80090D01*
X73154Y217657D02*Y203635D01*
Y217657D02*X80090D01*
Y203635D01*
X100572Y212448D02*X107508D01*
Y198426D01*
X100572D02*X107508D01*
X100572Y212448D02*Y198426D01*
X81103Y198155D02*X92913D01*
X81103Y206571D02*Y198155D01*
Y206571D02*X92913D01*
Y198155D01*
X81603D02*X81103Y198655D01*
X82203Y198155D02*X81103Y199255D01*
X82803Y198155D02*X81103Y199855D01*
X83403Y198155D02*X81103Y200455D01*
X80228Y231413D02*X87164D01*
Y217391D01*
X80228D02*X87164D01*
X80228Y231413D02*Y217391D01*
X87302D02*X94238D01*
X87302Y231413D02*Y217391D01*
Y231413D02*X94238D01*
Y217391D01*
X107853Y241610D02*X104253Y238010D01*
X98053D02*X104253D01*
X98053Y255410D02*Y238010D01*
X107853Y255410D02*Y241610D01*
X98053Y255410D02*X107853D01*
X93983Y231413D02*X100919D01*
Y217391D01*
X93983D02*X100919D01*
X93983Y231413D02*Y217391D01*
X117099Y236414D02*Y227752D01*
X102139D02*X117099D01*
X102139Y236414D02*Y227752D01*
Y236414D02*X117099D01*
X117022Y226733D02*Y219797D01*
X103000D02*X117022D01*
X103000Y226733D02*Y219797D01*
Y226733D02*X117022D01*
X151922Y224899D02*X181922D01*
Y268899D02*Y224899D01*
X151922Y268899D02*X181922D01*
X151922Y241899D02*Y224899D01*
Y268899D02*Y251899D01*
Y241899D02*G75*G03X151922Y251899I0J5000D01*G01*
X185413Y221253D02*Y214317D01*
X171391D02*X185413D01*
X171391Y221253D02*Y214317D01*
Y221253D02*X185413D01*
G54D326*X124275Y333492D02*X154983D01*
X124275Y332705D02*X154983D01*
X124275Y331918D02*X154983D01*
X124275Y331130D02*X154983D01*
X124275Y330343D02*X154983D01*
X124275Y329555D02*X154983D01*
X124275Y333492D02*Y326406D01*
X154983Y333492D02*Y326406D01*
X127424Y333492D02*Y320894D01*
X151834Y333492D02*Y320894D01*
X127424D02*X151834D01*
X124275Y292941D02*X154983D01*
G54D325*X161598Y290157D02*Y270473D01*
X147064D02*X161598D01*
X147064Y290157D02*Y270473D01*
Y290157D02*X161598D01*
Y271073D02*X160998Y270473D01*
X161598Y271673D02*X160398Y270473D01*
X161598Y272273D02*X159798Y270473D01*
X161598Y272873D02*X159198Y270473D01*
X159754Y224786D02*Y217850D01*
X145732D02*X159754D01*
X145732Y224786D02*Y217850D01*
Y224786D02*X159754D01*
G54D326*X185780Y213733D02*Y183733D01*
X165780Y213733D02*X185780D01*
X165780D02*Y183733D01*
X185780D01*
X175780Y193733D02*X185780D01*
X175780D02*Y183733D01*
G54D325*X114764Y217717D02*Y192126D01*
Y217717D02*X132087D01*
Y192126D01*
X114764D02*X132087D01*
X114764Y217126D02*X115354Y217717D01*
X114764Y216536D02*X115945Y217717D01*
X114764Y215945D02*X116535Y217717D01*
X114764Y215355D02*X117126Y217717D01*
G54D324*X1211Y317689D02*Y34225D01*
X16959Y333437D02*X178377D01*
X194125Y317689D02*Y34225D01*
X16959Y18477D02*X178377D01*
X7904Y305878D02*Y46036D01*
X28770Y326744D02*X166566D01*
X187432Y305878D02*Y46036D01*
X28770Y25170D02*X166566D01*
X28770Y34225D02*Y25170D01*
X7904Y46036D02*X16959D01*
X28770Y326744D02*Y317689D01*
X7904Y305878D02*X16959D01*
X166566Y326744D02*Y317689D01*
X178377Y305878D02*X187432D01*
X166566Y34225D02*Y25170D01*
X178377Y46036D02*X187432D01*
X1211Y34225D02*G75*G03X16959Y18477I15748J0D01*G01*
X28770Y34225D02*G75*G03X16959Y46036I-11811J0D01*G01*
X16959Y333437D02*G75*G03X1211Y317689I0J-15748D01*G01*
X16959Y305878D02*G75*G03X28770Y317689I0J11811D01*G01*
X194125Y317689D02*G75*G03X178377Y333437I-15748J0D01*G01*
X166566Y317689D02*G75*G03X178377Y305878I11811J0D01*G01*
Y18477D02*G75*G03X194125Y34225I0J15748D01*G01*
X178377Y46036D02*G75*G03X166566Y34225I0J-11811D01*G01*
G54D325*X175506Y128938D02*Y122002D01*
X161484D02*X175506D01*
X161484Y128938D02*Y122002D01*
Y128938D02*X175506D01*
X137008Y123032D02*Y134843D01*
X154331D01*
Y123032D01*
X137008D01*
Y134252D02*X137598Y134843D01*
X137008Y133662D02*X138189Y134843D01*
X137008Y133071D02*X138780Y134843D01*
X137008Y132481D02*X139370Y134843D01*
X166186Y153841D02*X173122D01*
Y139819D01*
X166186D02*X173122D01*
X166186Y153841D02*Y139819D01*
G54D327*X153847Y161437D02*X164083D01*
Y140965D01*
X153847D02*X164083D01*
X153847Y161437D02*Y140965D01*
G54D325*X106102Y137796D02*Y149607D01*
X123425D01*
Y137796D01*
X106102D01*
Y149016D02*X106693Y149607D01*
X106102Y148426D02*X107283Y149607D01*
X106102Y147835D02*X107874Y149607D01*
X106102Y147244D02*X108465Y149607D01*
X161484Y135619D02*Y128683D01*
Y135619D02*X175506D01*
Y128683D01*
X161484D02*X175506D01*
X130242Y150159D02*Y143223D01*
Y150159D02*X144264D01*
Y143223D01*
X130242D02*X144264D01*
Y143085D02*Y136149D01*
X130242D02*X144264D01*
X130242Y143085D02*Y136149D01*
Y143085D02*X144264D01*
X85423Y142103D02*Y135167D01*
Y142103D02*X99445D01*
Y135167D01*
X85423D02*X99445D01*
Y162932D02*Y155996D01*
X85423D02*X99445D01*
X85423Y162932D02*Y155996D01*
Y162932D02*X99445D01*
X114079D02*Y155996D01*
X100057D02*X114079D01*
X100057Y162932D02*Y155996D01*
Y162932D02*X114079D01*
X85423Y148784D02*Y141848D01*
Y148784D02*X99445D01*
Y141848D01*
X85423D02*X99445D01*
X100153Y163675D02*X114053D01*
Y176475D02*Y163675D01*
X100153Y176475D02*X114053D01*
X100153D02*Y163675D01*
X124867Y182508D02*Y173846D01*
Y182508D02*X139827D01*
Y173846D01*
X124867D02*X139827D01*
X100572Y198473D02*X107508D01*
Y184451D01*
X100572D02*X107508D01*
X100572Y198473D02*Y184451D01*
X107855Y191386D02*X114791D01*
Y177364D01*
X107855D02*X114791D01*
X107855Y191386D02*Y177364D01*
X139759Y191087D02*Y182425D01*
X124799D02*X139759D01*
X124799Y191087D02*Y182425D01*
Y191087D02*X139759D01*
X144290Y183469D02*Y169569D01*
X157090D01*
Y183469D01*
X144290D01*
X148111Y214523D02*X160709D01*
X148111D02*Y212948D01*
Y206649D02*Y203106D01*
Y196806D02*Y193263D01*
Y186964D02*Y185389D01*
X160709D01*
Y186964D02*Y185389D01*
Y196806D02*Y193263D01*
Y206649D02*Y203106D01*
Y214523D02*Y212948D01*
X138807Y192896D02*X145743D01*
X138807Y206918D02*Y192896D01*
Y206918D02*X145743D01*
Y192896D01*
X114812Y176993D02*X121748D01*
Y162971D01*
X114812D02*X121748D01*
X114812Y176993D02*Y162971D01*
X127289Y157037D02*Y150101D01*
Y157037D02*X141311D01*
Y150101D01*
X127289D02*X141311D01*
X100892Y135603D02*X114792D01*
X100892D02*Y122803D01*
X114792D01*
Y135603D02*Y122803D01*
X37711Y143960D02*X30624Y136873D01*
X10151D02*X30624D01*
X10151Y147897D02*Y136873D01*
Y164433D02*Y153409D01*
Y164433D02*X30624D01*
X37711Y157346D01*
Y153409D01*
Y147897D02*Y143960D01*
G54D327*X40674Y135271D02*Y125035D01*
X20202D02*X40674D01*
X20202Y135271D02*Y125035D01*
Y135271D02*X40674D01*
G54D325*X71971Y173512D02*X84570Y160914D01*
Y146740D01*
X71971Y134142D01*
X54649Y173512D02*X42050Y160914D01*
Y146740D01*
X54649Y134142D01*
X85423Y135422D02*Y128486D01*
Y135422D02*X99445D01*
Y128486D01*
X85423D02*X99445D01*
Y155858D02*Y148922D01*
X85423D02*X99445D01*
X85423Y155858D02*Y148922D01*
Y155858D02*X99445D01*
X72698Y127973D02*X79634D01*
Y113951D01*
X72698D02*X79634D01*
X72698Y127973D02*Y113951D01*
X86025Y184154D02*Y177218D01*
Y184154D02*X100047D01*
Y177218D01*
X86025D02*X100047D01*
X93983Y184379D02*X100919D01*
X93983Y198401D02*Y184379D01*
Y198401D02*X100919D01*
Y184379D01*
X73154Y203903D02*X80090D01*
Y189881D01*
X73154D02*X80090D01*
X73154Y203903D02*Y189881D01*
X85565Y176475D02*X99465D01*
X85565D02*Y163675D01*
X99465D01*
Y176475D02*Y163675D01*
X85423Y128348D02*Y121412D01*
Y128348D02*X99445D01*
Y121412D01*
X85423D02*X99445D01*
X77108Y282646D02*X93492D01*
Y256812D01*
X77108D02*X93492D01*
X77108Y282646D02*Y256812D01*
X109928Y263338D02*Y256402D01*
X95906D02*X109928D01*
X95906Y263338D02*Y256402D01*
Y263338D02*X109928D01*
X139536Y291094D02*Y284158D01*
X125514D02*X139536D01*
X125514Y291094D02*Y284158D01*
Y291094D02*X139536D01*
X118723Y291193D02*X125659D01*
Y277171D01*
X118723D02*X125659D01*
X118723Y291193D02*Y277171D01*
X110774Y270697D02*X116286D01*
X118648Y273059D01*
X110774Y270697D02*X108412Y273059D01*
Y291169D02*Y273059D01*
Y291169D02*X118648D01*
Y273059D01*
X139340Y275937D02*Y269001D01*
X125318D02*X139340D01*
X125318Y275937D02*Y269001D01*
Y275937D02*X139340D01*
X139536Y284204D02*Y277268D01*
X125514D02*X139536D01*
X125514Y284204D02*Y277268D01*
Y284204D02*X139536D01*
X168492Y283240D02*Y290176D01*
X182514D01*
Y283240D01*
X168492D01*
X168456Y276837D02*Y269901D01*
Y276837D02*X182478D01*
Y269901D01*
X168456D02*X182478D01*
X168457Y276397D02*Y283333D01*
X182479D01*
Y276397D01*
X168457D01*
X171988Y305956D02*X178924D01*
Y291934D01*
X171988D02*X178924D01*
X171988Y305956D02*Y291934D01*
X165099D02*X172035D01*
X165099Y305956D02*Y291934D01*
Y305956D02*X172035D01*
Y291934D01*
X122079Y268899D02*X152079D01*
X122079D02*Y224899D01*
X152079D01*
Y268899D02*Y251899D01*
Y241899D02*Y224899D01*
Y251899D02*G75*G03X152079Y241899I0J-5000D01*G01*
G54D328*X40824Y25239D02*X80194D01*
Y107523D02*Y25239D01*
X40824Y107523D02*X80194D01*
X40824D02*Y25239D01*
X41808D02*Y15791D01*
X79210D01*
Y25239D02*Y15791D01*
G54D325*X107030Y63026D02*X110030D01*
Y35026D01*
X107030D02*X110030D01*
X86030Y63026D02*X89030D01*
X86030D02*Y35026D01*
X89030D01*
X86030Y56076D02*X110030D01*
X86030Y55576D02*X110030D01*
X109860Y93158D02*Y76774D01*
X84026D02*X109860D01*
X84026Y93158D02*Y76774D01*
Y93158D02*X109860D01*
G54D328*X115494Y25239D02*X154864D01*
Y107523D02*Y25239D01*
X115494Y107523D02*X154864D01*
X115494D02*Y25239D01*
X116478D02*Y15791D01*
X153880D01*
Y25239D02*Y15791D01*
G54D325*X160731Y82388D02*X176329D01*
Y50256D01*
X160731D02*X176329D01*
X160731Y82388D02*Y50256D01*
X168653Y82985D02*X175589D01*
X168653Y97007D02*Y82985D01*
Y97007D02*X175589D01*
Y82985D01*
X161579D02*X168515D01*
X161579Y97007D02*Y82985D01*
Y97007D02*X168515D01*
Y82985D01*
X145553Y108443D02*Y115379D01*
X159575D01*
Y108443D01*
X145553D01*
G54D327*X87583Y97899D02*Y108135D01*
X108055D01*
Y97899D01*
X87583D01*
G54D325*X173465Y161884D02*X185275D01*
Y153468D01*
X173465D02*X185275D01*
X173465Y161884D02*Y153468D01*
X184775Y161884D02*X185275Y161384D01*
X184175Y161884D02*X185275Y160784D01*
X183575Y161884D02*X185275Y160184D01*
X182975Y161884D02*X185275Y159584D01*
X164253Y168917D02*X172915D01*
Y153957D01*
X164253D02*X172915D01*
X164253Y168917D02*Y153957D01*
X175727Y110854D02*X182663D01*
Y96832D01*
X175727D02*X182663D01*
X175727Y110854D02*Y96832D01*
Y97007D02*X182663D01*
Y82985D01*
X175727D02*X182663D01*
X175727Y97007D02*Y82985D01*
X173537Y122060D02*Y115124D01*
X159515D02*X173537D01*
X159515Y122060D02*Y115124D01*
Y122060D02*X173537D01*
X159575D02*Y115124D01*
X145553D02*X159575D01*
X145553Y122060D02*Y115124D01*
Y122060D02*X159575D01*
X116219Y135603D02*X130119D01*
X116219D02*Y122803D01*
X130119D01*
Y135603D02*Y122803D01*
X145427Y122060D02*Y115124D01*
X131405D02*X145427D01*
X131405Y122060D02*Y115124D01*
Y122060D02*X145427D01*
X141311Y170399D02*Y163463D01*
X127289D02*X141311D01*
X127289Y170399D02*Y163463D01*
Y170399D02*X141311D01*
X127289Y163718D02*Y156782D01*
Y163718D02*X141311D01*
Y156782D01*
X127289D02*X141311D01*
X141536Y168533D02*X148472D01*
Y154511D01*
X141536D02*X148472D01*
X141536Y168533D02*Y154511D01*
X162533Y168434D02*Y161498D01*
X148511D02*X162533D01*
X148511Y168434D02*Y161498D01*
Y168434D02*X162533D01*
X178288Y183515D02*X185224D01*
Y169493D01*
X178288D02*X185224D01*
X178288Y183515D02*Y169493D01*
X171595Y183515D02*X178531D01*
Y169493D01*
X171595D02*X178531D01*
X171595Y183515D02*Y169493D01*
X157363Y169387D02*X171263D01*
Y182187D02*Y169387D01*
X157363Y182187D02*X171263D01*
X157363D02*Y169387D01*
G54D327*X51637Y229179D02*X53637D01*
X54137Y228679D01*
Y227679D01*
X53637Y227179D02*X54137Y227679D01*
X52137Y227179D02*X53637D01*
X52137Y229179D02*Y225179D01*
X52937Y227179D02*X54137Y225179D01*
X55337Y226679D02*X57337Y229179D01*
X55337Y226679D02*X57837D01*
X57337Y229179D02*Y225179D01*
X56531Y308417D02*X57331D01*
Y304917D01*
X56831Y304417D02*X57331Y304917D01*
X56331Y304417D02*X56831D01*
X55831Y304917D02*X56331Y304417D01*
X55831Y305417D02*Y304917D01*
X58531Y307617D02*X59331Y308417D01*
Y304417D01*
X58531D02*X60031D01*
X19448Y208067D02*X20748D01*
X18748Y208767D02*X19448Y208067D01*
X18748Y211367D02*Y208767D01*
Y211367D02*X19448Y212067D01*
X20748D01*
X21948Y211567D02*X22448Y212067D01*
X23948D01*
X24448Y211567D01*
Y210567D01*
X21948Y208067D02*X24448Y210567D01*
X21948Y208067D02*X24448D01*
X25648Y209567D02*X27648Y212067D01*
X25648Y209567D02*X28148D01*
X27648Y212067D02*Y208067D01*
X19308Y249474D02*X20608D01*
X18608Y250174D02*X19308Y249474D01*
X18608Y252774D02*Y250174D01*
Y252774D02*X19308Y253474D01*
X20608D01*
X21808Y252974D02*X22308Y253474D01*
X23808D01*
X24308Y252974D01*
Y251974D01*
X21808Y249474D02*X24308Y251974D01*
X21808Y249474D02*X24308D01*
X25508Y249974D02*X26008Y249474D01*
X25508Y252974D02*Y249974D01*
Y252974D02*X26008Y253474D01*
X27008D01*
X27508Y252974D01*
Y249974D01*
X27008Y249474D02*X27508Y249974D01*
X26008Y249474D02*X27008D01*
X25508Y250474D02*X27508Y252474D01*
X28239Y223792D02*X29539D01*
X27539Y224492D02*X28239Y223792D01*
X27539Y227092D02*Y224492D01*
Y227092D02*X28239Y227792D01*
X29539D01*
X30739Y227292D02*X31239Y227792D01*
X32739D01*
X33239Y227292D01*
Y226292D01*
X30739Y223792D02*X33239Y226292D01*
X30739Y223792D02*X33239D01*
X57680Y250126D02*Y246126D01*
X58980Y250126D02*X59680Y249426D01*
Y246826D01*
X58980Y246126D02*X59680Y246826D01*
X57180Y246126D02*X58980D01*
X57180Y250126D02*X58980D01*
X60880Y249326D02*X61680Y250126D01*
Y246126D01*
X60880D02*X62380D01*
X82977Y271476D02*Y267476D01*
Y271476D02*X84977D01*
X82977Y269676D02*X84477D01*
X86177Y270676D02*X86977Y271476D01*
Y267476D01*
X86177D02*X87677D01*
X99809Y250033D02*Y246533D01*
X100309Y246033D01*
X101309D01*
X101809Y246533D01*
Y250033D02*Y246533D01*
X103009Y249533D02*X103509Y250033D01*
X105009D01*
X105509Y249533D01*
Y248533D01*
X103009Y246033D02*X105509Y248533D01*
X103009Y246033D02*X105509D01*
X109672Y282862D02*Y278862D01*
X110972Y282862D02*X111672Y282162D01*
Y279562D01*
X110972Y278862D02*X111672Y279562D01*
X109172Y278862D02*X110972D01*
X109172Y282862D02*X110972D01*
X112872Y282062D02*X113672Y282862D01*
Y278862D01*
X112872D02*X114372D01*
X115572Y282862D02*X117572D01*
X115572D02*Y280862D01*
X116072Y281362D01*
X117072D01*
X117572Y280862D01*
Y279362D01*
X117072Y278862D02*X117572Y279362D01*
X116072Y278862D02*X117072D01*
X115572Y279362D02*X116072Y278862D01*
X134175Y248349D02*Y244849D01*
X134675Y244349D01*
X135675D01*
X136175Y244849D01*
Y248349D02*Y244849D01*
X137375D02*X137875Y244349D01*
X137375Y245649D02*Y244849D01*
Y245649D02*X138075Y246349D01*
X138675D01*
X139375Y245649D01*
Y244849D01*
X138875Y244349D02*X139375Y244849D01*
X137875Y244349D02*X138875D01*
X137375Y247049D02*X138075Y246349D01*
X137375Y247849D02*Y247049D01*
Y247849D02*X137875Y248349D01*
X138875D01*
X139375Y247849D01*
Y247049D01*
X138675Y246349D02*X139375Y247049D01*
X119111Y202638D02*Y199138D01*
X119611Y198638D01*
X120611D01*
X121111Y199138D01*
Y202638D02*Y199138D01*
X122311Y201838D02*X123111Y202638D01*
Y198638D01*
X122311D02*X123811D01*
X125011Y202138D02*X125511Y202638D01*
X127011D01*
X127511Y202138D01*
Y201138D01*
X125011Y198638D02*X127511Y201138D01*
X125011Y198638D02*X127511D01*
X135298Y319107D02*Y315607D01*
X135798Y315107D01*
X136798D01*
X137298Y315607D01*
Y319107D02*Y315607D01*
X140498Y319107D02*X140998Y318607D01*
X138998Y319107D02*X140498D01*
X138498Y318607D02*X138998Y319107D01*
X138498Y318607D02*Y317607D01*
X138998Y317107D01*
X140498D01*
X140998Y316607D01*
Y315607D01*
X140498Y315107D02*X140998Y315607D01*
X138998Y315107D02*X140498D01*
X138498Y315607D02*X138998Y315107D01*
X142198D02*X144198D01*
X144698Y315607D01*
Y316807D02*Y315607D01*
X144198Y317307D02*X144698Y316807D01*
X142698Y317307D02*X144198D01*
X142698Y319107D02*Y315107D01*
X142198Y319107D02*X144198D01*
X144698Y318607D01*
Y317807D01*
X144198Y317307D02*X144698Y317807D01*
X151788Y279409D02*Y275909D01*
X152288Y275409D01*
X153288D01*
X153788Y275909D01*
Y279409D02*Y275909D01*
X154988Y279409D02*X156988D01*
X154988D02*Y277409D01*
X155488Y277909D01*
X156488D01*
X156988Y277409D01*
Y275909D01*
X156488Y275409D02*X156988Y275909D01*
X155488Y275409D02*X156488D01*
X154988Y275909D02*X155488Y275409D01*
X164901Y248323D02*Y244823D01*
X165401Y244323D01*
X166401D01*
X166901Y244823D01*
Y248323D02*Y244823D01*
X168601Y244323D02*X170101Y246323D01*
Y247823D02*Y246323D01*
X169601Y248323D02*X170101Y247823D01*
X168601Y248323D02*X169601D01*
X168101Y247823D02*X168601Y248323D01*
X168101Y247823D02*Y246823D01*
X168601Y246323D01*
X170101D01*
X161798Y221089D02*X162798D01*
X162298D02*Y217089D01*
X161798D02*X162798D01*
X165998Y221089D02*X166498Y220589D01*
X164498Y221089D02*X165998D01*
X163998Y220589D02*X164498Y221089D01*
X163998Y220589D02*Y219589D01*
X164498Y219089D01*
X165998D01*
X166498Y218589D01*
Y217589D01*
X165998Y217089D02*X166498Y217589D01*
X164498Y217089D02*X165998D01*
X163998Y217589D02*X164498Y217089D01*
X168198Y221089D02*Y217089D01*
X167698Y221089D02*X169698D01*
X170198Y220589D01*
Y219589D01*
X169698Y219089D02*X170198Y219589D01*
X168198Y219089D02*X169698D01*
X57157Y196905D02*Y193905D01*
Y196905D02*X57657Y197405D01*
X58657D01*
X59157Y196905D01*
Y194405D01*
X58157Y193405D02*X59157Y194405D01*
X57657Y193405D02*X58157D01*
X57157Y193905D02*X57657Y193405D01*
X58157Y194905D02*X59157Y193405D01*
X60357Y197405D02*X62357D01*
X60357D02*Y195405D01*
X60857Y195905D01*
X61857D01*
X62357Y195405D01*
Y193905D01*
X61857Y193405D02*X62357Y193905D01*
X60857Y193405D02*X61857D01*
X60357Y193905D02*X60857Y193405D01*
X84676Y204612D02*Y201112D01*
X85176Y200612D01*
X86176D01*
X86676Y201112D01*
Y204612D02*Y201112D01*
X87876Y203812D02*X88676Y204612D01*
Y200612D01*
X87876D02*X89376D01*
X151271Y192978D02*X153771Y196978D01*
X151271D02*X153771Y192978D01*
X154971Y196178D02*X155771Y196978D01*
Y192978D01*
X154971D02*X156471D01*
X123689Y82282D02*Y78282D01*
Y82282D02*X126189Y78282D01*
Y82282D02*Y78282D01*
X127389Y80482D02*X128889D01*
X127389Y78282D02*X129389D01*
X127389Y82282D02*Y78282D01*
Y82282D02*X129389D01*
X132589D02*X133089Y81782D01*
X131089Y82282D02*X132589D01*
X130589Y81782D02*X131089Y82282D01*
X130589Y81782D02*Y78782D01*
X131089Y78282D01*
X132589D01*
X133089Y78782D01*
Y79782D02*Y78782D01*
X132589Y80282D02*X133089Y79782D01*
X131589Y80282D02*X132589D01*
X134289Y81282D02*Y78282D01*
Y81282D02*X134989Y82282D01*
X136089D01*
X136789Y81282D01*
Y78282D01*
X134289Y80282D02*X136789D01*
X137989Y82282D02*X139989D01*
X138989D02*Y78282D01*
X141189Y82282D02*X142189D01*
X141689D02*Y78282D01*
X141189D02*X142189D01*
X143389Y82282D02*X144389Y78282D01*
X145389Y82282D01*
X146589Y80482D02*X148089D01*
X146589Y78282D02*X148589D01*
X146589Y82282D02*Y78282D01*
Y82282D02*X148589D01*
X48973Y82888D02*Y78888D01*
X48473Y82888D02*X50473D01*
X50973Y82388D01*
Y81388D01*
X50473Y80888D02*X50973Y81388D01*
X48973Y80888D02*X50473D01*
X52173Y82388D02*Y79388D01*
Y82388D02*X52673Y82888D01*
X53673D01*
X54173Y82388D01*
Y79388D01*
X53673Y78888D02*X54173Y79388D01*
X52673Y78888D02*X53673D01*
X52173Y79388D02*X52673Y78888D01*
X57373Y82888D02*X57873Y82388D01*
X55873Y82888D02*X57373D01*
X55373Y82388D02*X55873Y82888D01*
X55373Y82388D02*Y81388D01*
X55873Y80888D01*
X57373D01*
X57873Y80388D01*
Y79388D01*
X57373Y78888D02*X57873Y79388D01*
X55873Y78888D02*X57373D01*
X55373Y79388D02*X55873Y78888D01*
X59073Y82888D02*X60073D01*
X59573D02*Y78888D01*
X59073D02*X60073D01*
X61273Y82888D02*X63273D01*
X62273D02*Y78888D01*
X64473Y82888D02*X65473D01*
X64973D02*Y78888D01*
X64473D02*X65473D01*
X66673Y82888D02*X67673Y78888D01*
X68673Y82888D01*
X69873Y81088D02*X71373D01*
X69873Y78888D02*X71873D01*
X69873Y82888D02*Y78888D01*
Y82888D02*X71873D01*
X93580Y49936D02*Y45936D01*
X94880Y49936D02*X95580Y49236D01*
Y46636D01*
X94880Y45936D02*X95580Y46636D01*
X93080Y45936D02*X94880D01*
X93080Y49936D02*X94880D01*
X96780Y49136D02*X97580Y49936D01*
Y45936D01*
X96780D02*X98280D01*
X99480Y49436D02*X99980Y49936D01*
X100980D01*
X101480Y49436D01*
X100980Y45936D02*X101480Y46436D01*
X99980Y45936D02*X100980D01*
X99480Y46436D02*X99980Y45936D01*
Y48136D02*X100980D01*
X101480Y49436D02*Y48636D01*
Y47636D02*Y46436D01*
Y47636D02*X100980Y48136D01*
X101480Y48636D02*X100980Y48136D01*
X163784Y72396D02*X165784D01*
X166284Y71896D01*
Y70896D01*
X165784Y70396D02*X166284Y70896D01*
X164284Y70396D02*X165784D01*
X164284Y72396D02*Y68396D01*
X165084Y70396D02*X166284Y68396D01*
X167484Y69896D02*X169484Y72396D01*
X167484Y69896D02*X169984D01*
X169484Y72396D02*Y68396D01*
X171184Y71896D02*X171684Y72396D01*
X172684D01*
X173184Y71896D01*
X172684Y68396D02*X173184Y68896D01*
X171684Y68396D02*X172684D01*
X171184Y68896D02*X171684Y68396D01*
Y70596D02*X172684D01*
X173184Y71896D02*Y71096D01*
Y70096D02*Y68896D01*
Y70096D02*X172684Y70596D01*
X173184Y71096D02*X172684Y70596D01*
X26830Y179916D02*Y175916D01*
X28130Y179916D02*X28830Y179216D01*
Y176616D01*
X28130Y175916D02*X28830Y176616D01*
X26330Y175916D02*X28130D01*
X26330Y179916D02*X28130D01*
X30030Y177416D02*X32030Y179916D01*
X30030Y177416D02*X32530D01*
X32030Y179916D02*Y175916D01*
X19477Y153975D02*X20777D01*
X18777Y154675D02*X19477Y153975D01*
X18777Y157275D02*Y154675D01*
Y157275D02*X19477Y157975D01*
X20777D01*
X21977Y157175D02*X22777Y157975D01*
Y153975D01*
X21977D02*X23477D01*
X24677Y154475D02*X25177Y153975D01*
X24677Y157475D02*Y154475D01*
Y157475D02*X25177Y157975D01*
X26177D01*
X26677Y157475D01*
Y154475D01*
X26177Y153975D02*X26677Y154475D01*
X25177Y153975D02*X26177D01*
X24677Y154975D02*X26677Y156975D01*
X28650Y128219D02*X29950D01*
X27950Y128919D02*X28650Y128219D01*
X27950Y131519D02*Y128919D01*
Y131519D02*X28650Y132219D01*
X29950D01*
X31150D02*X33150D01*
X31150D02*Y130219D01*
X31650Y130719D01*
X32650D01*
X33150Y130219D01*
Y128719D01*
X32650Y128219D02*X33150Y128719D01*
X31650Y128219D02*X32650D01*
X31150Y128719D02*X31650Y128219D01*
X94057Y87166D02*Y83166D01*
Y87166D02*X96057D01*
X94057Y85366D02*X95557D01*
X97257Y86666D02*X97757Y87166D01*
X99257D01*
X99757Y86666D01*
Y85666D01*
X97257Y83166D02*X99757Y85666D01*
X97257Y83166D02*X99757D01*
X156751Y149030D02*X158051D01*
X156051Y149730D02*X156751Y149030D01*
X156051Y152330D02*Y149730D01*
Y152330D02*X156751Y153030D01*
X158051D01*
X159751Y149030D02*X161251Y151030D01*
Y152530D02*Y151030D01*
X160751Y153030D02*X161251Y152530D01*
X159751Y153030D02*X160751D01*
X159251Y152530D02*X159751Y153030D01*
X159251Y152530D02*Y151530D01*
X159751Y151030D01*
X161251D01*
X142733Y131771D02*Y128271D01*
X143233Y127771D01*
X144233D01*
X144733Y128271D01*
Y131771D02*Y128271D01*
X146433Y127771D02*X148433Y131771D01*
X145933D02*X148433D01*
X111434Y144960D02*Y141460D01*
X111934Y140960D01*
X112934D01*
X113434Y141460D01*
Y144960D02*Y141460D01*
X116134Y144960D02*X116634Y144460D01*
X115134Y144960D02*X116134D01*
X114634Y144460D02*X115134Y144960D01*
X114634Y144460D02*Y141460D01*
X115134Y140960D01*
X116134Y143160D02*X116634Y142660D01*
X114634Y143160D02*X116134D01*
X115134Y140960D02*X116134D01*
X116634Y141460D01*
Y142660D02*Y141460D01*
X174882Y159671D02*Y156171D01*
X175382Y155671D01*
X176382D01*
X176882Y156171D01*
Y159671D02*Y156171D01*
X178082Y158871D02*X178882Y159671D01*
Y155671D01*
X178082D02*X179582D01*
X180782Y159171D02*X181282Y159671D01*
X182282D01*
X182782Y159171D01*
X182282Y155671D02*X182782Y156171D01*
X181282Y155671D02*X182282D01*
X180782Y156171D02*X181282Y155671D01*
Y157871D02*X182282D01*
X182782Y159171D02*Y158371D01*
Y157371D02*Y156171D01*
Y157371D02*X182282Y157871D01*
X182782Y158371D02*X182282Y157871D01*
X60267Y155492D02*Y151492D01*
X62267D01*
X63467Y154992D02*X63967Y155492D01*
X65467D01*
X65967Y154992D01*
Y153992D01*
X63467Y151492D02*X65967Y153992D01*
X63467Y151492D02*X65967D01*
X62363Y125969D02*Y121969D01*
Y125969D02*X64363D01*
X62363Y124169D02*X63863D01*
X65563Y121969D02*X67563D01*
X68063Y122469D01*
Y123669D02*Y122469D01*
X67563Y124169D02*X68063Y123669D01*
X66063Y124169D02*X67563D01*
X66063Y125969D02*Y121969D01*
X65563Y125969D02*X67563D01*
X68063Y125469D01*
Y124669D01*
X67563Y124169D02*X68063Y124669D01*
X69263Y125469D02*X69763Y125969D01*
X70763D01*
X71263Y125469D01*
X70763Y121969D02*X71263Y122469D01*
X69763Y121969D02*X70763D01*
X69263Y122469D02*X69763Y121969D01*
Y124169D02*X70763D01*
X71263Y125469D02*Y124669D01*
Y123669D02*Y122469D01*
Y123669D02*X70763Y124169D01*
X71263Y124669D02*X70763Y124169D01*
M02*
