G04 start of page 7 for group -4063 idx -4063 *
G04 Title: (unknown), componentmask *
G04 Creator: pcb 20110918 *
G04 CreationDate: So 13 Jul 2014 20:19:28 GMT UTC *
G04 For: ffg *
G04 Format: Gerber/RS-274X *
G04 PCB-Dimensions: 196850 334646 *
G04 PCB-Coordinate-Origin: lower left *
%MOIN*%
%FSLAX25Y25*%
%LNTOPMASK*%
%ADD315R,0.0378X0.0378*%
%ADD314R,0.0630X0.0630*%
%ADD313R,0.0670X0.0670*%
%ADD312R,0.0400X0.0400*%
%ADD311R,0.0748X0.0748*%
%ADD310R,0.1142X0.1142*%
%ADD309R,0.0197X0.0197*%
%ADD308R,0.0551X0.0551*%
%ADD307R,0.0472X0.0472*%
%ADD306R,0.0201X0.0201*%
%ADD305R,0.0591X0.0591*%
%ADD304R,0.0197X0.0197*%
%ADD303R,0.0433X0.0433*%
%ADD302R,0.0300X0.0300*%
%ADD301R,0.0205X0.0205*%
%ADD300R,0.0866X0.0866*%
%ADD299R,0.0787X0.0787*%
%ADD298C,0.0630*%
%ADD297C,0.0709*%
%ADD296C,0.1339*%
%ADD295C,0.1221*%
%ADD294C,0.0660*%
%ADD293C,0.0001*%
%ADD292C,0.0354*%
G54D292*X148290Y310264D03*
G54D293*G36*
X177480Y192033D02*Y185433D01*
X184080D01*
Y192033D01*
X177480D01*
G37*
G54D294*X170780Y188733D03*
X180780Y198733D03*
X170780D03*
X180780Y208733D03*
X170780D03*
G54D295*X178377Y317689D03*
Y34225D03*
G54D296*X60509Y33704D03*
Y93940D03*
G54D297*X58151Y296196D03*
G54D296*X135179Y33704D03*
Y93940D03*
G54D298*X58151Y313913D03*
G54D292*X130968Y310264D03*
G54D295*X16959Y34225D03*
Y317689D03*
G54D299*X82347Y277406D02*X88253D01*
G54D300*X81773Y315488D02*Y312338D01*
Y291472D02*Y288322D01*
G54D301*X83170Y194844D02*Y192560D01*
Y212166D02*Y209882D01*
X85729Y194844D02*Y192560D01*
Y212166D02*Y209882D01*
X88287Y194844D02*Y192560D01*
Y212166D02*Y209882D01*
X90846Y194844D02*Y192560D01*
Y212166D02*Y209882D01*
G54D302*X110053Y239210D02*X116353D01*
X110053Y244210D02*X116353D01*
X110053Y249210D02*X116353D01*
X110053Y254210D02*X116353D01*
G54D303*X106263Y259870D02*X106460D01*
X99374D02*X99571D01*
G54D302*X89553Y254210D02*X95853D01*
X89553Y249210D02*X95853D01*
X89553Y244210D02*X95853D01*
X89553Y239210D02*X95853D01*
G54D303*X113950Y233067D02*Y231099D01*
X105288Y233067D02*Y231099D01*
X113357Y223265D02*X113554D01*
X106468D02*X106665D01*
G54D304*X110236Y216437D02*X112992D01*
X110236Y213878D02*X112992D01*
X110236Y211319D02*X112992D01*
X110236Y208760D02*X112992D01*
X110236Y206201D02*X112992D01*
X110236Y203642D02*X112992D01*
X110236Y201083D02*X112992D01*
X110236Y198524D02*X112992D01*
X110236Y195965D02*X112992D01*
X110236Y193406D02*X112992D01*
G54D305*X156528Y229182D02*X157316D01*
X166528D02*X167316D01*
X176528D02*X177316D01*
G54D303*X174859Y217785D02*X175056D01*
X156089Y221318D02*X156286D01*
G54D305*X146685Y229182D02*X147473D01*
G54D303*X149200Y221318D02*X149397D01*
X171960Y286708D02*X172157D01*
X171925Y279865D02*X172122D01*
X178849Y286708D02*X179046D01*
X178814Y279865D02*X179011D01*
X175456Y302488D02*Y302291D01*
X168567Y302488D02*Y302291D01*
X175456Y295599D02*Y295402D01*
X168567Y295599D02*Y295402D01*
G54D306*X163798Y281565D02*X166516D01*
X163798Y284065D02*X166516D01*
X163798Y286565D02*X166516D01*
X163798Y289065D02*X166516D01*
G54D307*X171924Y273369D02*X172121D01*
X178813D02*X179010D01*
G54D305*X176528Y264616D02*X177316D01*
X166528D02*X167316D01*
G54D306*X163798Y274065D02*X166516D01*
X163798Y271565D02*X166516D01*
X163798Y276565D02*X166516D01*
X163798Y279065D02*X166516D01*
G54D303*X181748Y217785D02*X181945D01*
G54D305*X126685Y229182D02*X127473D01*
X136685D02*X137473D01*
G54D308*X148898Y209799D02*X159922D01*
X148898Y199956D02*X159922D01*
G54D303*X142275Y196561D02*Y196364D01*
G54D304*X133858Y193406D02*X136614D01*
X133858Y195965D02*X136614D01*
G54D303*X142275Y203450D02*Y203253D01*
G54D304*X133858Y198524D02*X136614D01*
X133858Y201083D02*X136614D01*
X133858Y203642D02*X136614D01*
X133858Y206201D02*X136614D01*
X133858Y208760D02*X136614D01*
X133858Y211319D02*X136614D01*
X133858Y213878D02*X136614D01*
X133858Y216437D02*X136614D01*
G54D303*X135871Y287626D02*X136068D01*
X128982D02*X129179D01*
X122191Y287725D02*Y287528D01*
G54D305*X112349Y274831D02*X114711D01*
X112349Y287035D02*X114711D01*
G54D307*X135871Y280736D02*X136068D01*
X128982D02*X129179D01*
G54D303*X122191Y280836D02*Y280639D01*
X135675Y272469D02*X135872D01*
X128786D02*X128983D01*
G54D305*X126685Y264616D02*X127473D01*
X156528D02*X157316D01*
X146685D02*X147473D01*
X136685D02*X137473D01*
G54D300*X120141Y321484D02*Y314004D01*
Y303571D02*Y298059D01*
G54D309*X133330Y304358D02*Y297272D01*
X145928Y304358D02*Y297272D01*
X142779Y304358D02*Y297272D01*
X139629Y304358D02*Y297272D01*
X136479Y304358D02*Y297272D01*
G54D300*X159117Y321484D02*Y314004D01*
Y303571D02*Y298059D01*
G54D306*X142146Y289065D02*X144864D01*
X142146Y286565D02*X144864D01*
X142146Y284065D02*X144864D01*
X142146Y281565D02*X144864D01*
X142146Y279065D02*X144864D01*
X142146Y276565D02*X144864D01*
X142146Y274065D02*X144864D01*
X142146Y271565D02*X144864D01*
G54D310*X96030Y63076D02*X100030D01*
X96030Y34976D02*X100030D01*
G54D311*X165774Y77346D02*X171286D01*
X165774Y55298D02*X171286D01*
G54D303*X172121Y86650D02*Y86453D01*
Y93539D02*Y93342D01*
X165047Y86650D02*Y86453D01*
Y93539D02*Y93342D01*
X179195Y107386D02*Y107189D01*
Y100497D02*Y100300D01*
Y93539D02*Y93342D01*
Y86650D02*Y86453D01*
X169872Y118592D02*X170069D01*
X171841Y125470D02*X172038D01*
X164952D02*X165149D01*
X162983Y118592D02*X163180D01*
X149021Y111911D02*X149218D01*
X155910D02*X156107D01*
X155910Y118592D02*X156107D01*
X149021D02*X149218D01*
X141762D02*X141959D01*
G54D304*X156102Y125099D02*X158858D01*
X156102Y127658D02*X158858D01*
X156102Y130217D02*X158858D01*
X156102Y132776D02*X158858D01*
G54D299*X104620Y87919D02*Y82013D01*
G54D308*X103921Y104198D02*Y101836D01*
G54D299*X89266Y87919D02*Y82013D01*
G54D308*X91717Y104198D02*Y101836D01*
G54D303*X88891Y131954D02*X89088D01*
X95780D02*X95977D01*
X88891Y124880D02*X89088D01*
X95780D02*X95977D01*
G54D312*X103492Y125303D02*X104092D01*
X111692Y129203D02*X112292D01*
G54D304*X132480Y132776D02*X135236D01*
X132480Y130217D02*X135236D01*
X132480Y127658D02*X135236D01*
X132480Y125099D02*X135236D01*
G54D310*X46070Y249876D02*Y245876D01*
X74170Y249876D02*Y245876D01*
G54D311*X63772Y228318D02*Y224774D01*
G54D299*X82347Y262052D02*X88253D01*
G54D313*X45831Y269541D02*Y265211D01*
X34809Y269541D02*Y265211D01*
G54D305*X54763Y267642D02*Y265280D01*
X66967Y267642D02*Y265280D01*
G54D308*X36557Y227062D02*Y224700D01*
G54D303*X83696Y227945D02*Y227748D01*
Y221056D02*Y220859D01*
X90770Y221056D02*Y220859D01*
Y227945D02*Y227748D01*
X76622Y214189D02*Y213992D01*
X97451Y227945D02*Y227748D01*
Y221056D02*Y220859D01*
G54D310*X43380Y179996D02*Y175996D01*
X15280Y179996D02*Y175996D01*
G54D303*X29336Y205153D02*X37210D01*
X29443Y150653D02*X37317D01*
G54D308*X36540Y131334D02*Y128972D01*
X24336Y131334D02*Y128972D01*
G54D303*X10438Y205153D02*X18312D01*
X10545Y150653D02*X18419D01*
G54D300*X34529Y315488D02*Y312338D01*
Y291472D02*Y288322D01*
G54D311*X46450Y228318D02*Y224774D01*
G54D303*X45477Y215270D02*X45674D01*
X52366D02*X52563D01*
X29256Y246798D02*X37130D01*
X10358D02*X18232D01*
G54D302*X52201Y188487D02*Y182187D01*
Y208987D02*Y202687D01*
X67201Y208987D02*Y202687D01*
X62201Y208987D02*Y202687D01*
X57201Y208987D02*Y202687D01*
Y188487D02*Y182187D01*
X62201Y188487D02*Y182187D01*
X67201Y188487D02*Y182187D01*
G54D314*X59767Y171544D02*X66853D01*
G54D308*X24353Y227062D02*Y224700D01*
G54D303*X95780Y152390D02*X95977D01*
X88891D02*X89088D01*
X88891Y145316D02*X89088D01*
X95780D02*X95977D01*
G54D314*X59767Y136110D02*X66853D01*
G54D303*X76166Y124505D02*Y124308D01*
Y117616D02*Y117419D01*
G54D312*X103492Y133103D02*X104092D01*
G54D304*X101575Y147540D02*X104331D01*
X101575Y144981D02*X104331D01*
X101575Y142422D02*X104331D01*
X101575Y139863D02*X104331D01*
G54D303*X89493Y180686D02*X89690D01*
X76622Y200435D02*Y200238D01*
Y193546D02*Y193349D01*
Y207300D02*Y207103D01*
G54D312*X88165Y173975D02*X88765D01*
X88165Y166175D02*X88765D01*
G54D303*X96382Y180686D02*X96579D01*
X97451Y188044D02*Y187847D01*
X104040Y188116D02*Y187919D01*
G54D312*X110853Y166175D02*X111453D01*
X110853Y173975D02*X111453D01*
X102653Y170075D02*X103253D01*
X96365D02*X96965D01*
G54D303*X97451Y194933D02*Y194736D01*
X104040Y195005D02*Y194808D01*
G54D307*Y208980D02*Y208783D01*
Y202091D02*Y201894D01*
G54D301*X183208Y167479D02*Y165195D01*
X180649Y167479D02*Y165195D01*
X178091Y167479D02*Y165195D01*
X175532Y167479D02*Y165195D01*
G54D303*X167600Y165768D02*X169568D01*
X167600Y157106D02*X169568D01*
G54D301*X175532Y150157D02*Y147873D01*
X178091Y150157D02*Y147873D01*
X180649Y150157D02*Y147873D01*
X183208Y150157D02*Y147873D01*
G54D307*X169654Y150373D02*Y150176D01*
G54D303*X136610Y187740D02*Y185772D01*
X127948Y187740D02*Y185772D01*
X136678Y179161D02*Y177193D01*
G54D315*X146790Y172769D02*Y172169D01*
G54D303*X145004Y165065D02*Y164868D01*
Y158176D02*Y157979D01*
G54D315*X154590Y172769D02*Y172169D01*
X150690Y180969D02*Y180369D01*
G54D308*X148898Y190113D02*X159922D01*
G54D303*X137646Y166931D02*X137843D01*
X130757D02*X130954D01*
X88891Y138635D02*X89088D01*
X95780D02*X95977D01*
G54D312*X118819Y133103D02*X119419D01*
X118819Y125303D02*X119419D01*
X127019Y129203D02*X127619D01*
G54D304*X125197Y139863D02*X127953D01*
X125197Y142422D02*X127953D01*
X125197Y144981D02*X127953D01*
X125197Y147540D02*X127953D01*
G54D303*X95780Y159464D02*X95977D01*
X88891D02*X89088D01*
G54D307*X110414D02*X110611D01*
X103525D02*X103722D01*
G54D303*X128016Y179161D02*Y177193D01*
G54D307*X111323Y187918D02*Y187721D01*
Y181029D02*Y180832D01*
G54D303*X118280Y173525D02*Y173328D01*
Y166636D02*Y166439D01*
X130757Y160250D02*X130954D01*
X137646D02*X137843D01*
X158868Y164966D02*X159065D01*
X151979D02*X152176D01*
G54D305*X157784Y157303D02*X160146D01*
G54D303*X181756Y180047D02*Y179850D01*
Y173158D02*Y172961D01*
X175063Y180047D02*Y179850D01*
Y173158D02*Y172961D01*
G54D315*X168063Y171887D02*X168663D01*
X168063Y179687D02*X168663D01*
X159863Y175787D02*X160463D01*
G54D307*X164952Y132151D02*X165149D01*
X171841D02*X172038D01*
X169654Y143484D02*Y143287D01*
G54D305*X157784Y145099D02*X160146D01*
G54D303*X130757Y153569D02*X130954D01*
X137646D02*X137843D01*
X134873Y118592D02*X135070D01*
X133710Y146691D02*X133907D01*
X140599D02*X140796D01*
X140599Y139617D02*X140796D01*
X133710D02*X133907D01*
M02*
