G04 start of page 3 for group 1 idx 1 *
G04 Title: (unknown), solder *
G04 Creator: pcb 20110918 *
G04 CreationDate: So 13 Jul 2014 20:19:28 GMT UTC *
G04 For: ffg *
G04 Format: Gerber/RS-274X *
G04 PCB-Dimensions: 196850 334646 *
G04 PCB-Coordinate-Origin: lower left *
%MOIN*%
%FSLAX25Y25*%
%LNBOTTOM*%
%ADD283C,0.0630*%
%ADD282C,0.0709*%
%ADD281C,0.0787*%
%ADD280C,0.1221*%
%ADD279C,0.0394*%
%ADD278C,0.0354*%
%ADD277C,0.0138*%
%ADD276C,0.0276*%
%ADD275C,0.1181*%
%ADD274C,0.0600*%
%ADD273C,0.0250*%
%ADD272C,0.0079*%
%ADD271C,0.0001*%
G54D271*G36*
X183079Y305744D02*X187454D01*
Y262592D01*
X164331D01*
Y290777D01*
X173640D01*
X173699Y290681D01*
X173920Y290421D01*
X174180Y290200D01*
X174470Y290022D01*
X174785Y289892D01*
X175116Y289812D01*
X175456Y289785D01*
X175796Y289812D01*
X176127Y289892D01*
X176442Y290022D01*
X176732Y290200D01*
X176992Y290421D01*
X177213Y290681D01*
X177391Y290971D01*
X177521Y291286D01*
X177601Y291617D01*
X177621Y291957D01*
X177601Y292297D01*
X177521Y292628D01*
X177391Y292943D01*
X177213Y293233D01*
X176992Y293493D01*
X176806Y293651D01*
X176732Y293714D01*
X176442Y293892D01*
X176127Y294022D01*
X175796Y294102D01*
X175456Y294129D01*
X175116Y294102D01*
X174785Y294022D01*
X174470Y293892D01*
X174180Y293714D01*
X174106Y293651D01*
X173920Y293493D01*
X173699Y293233D01*
X173640Y293138D01*
X164331D01*
Y326624D01*
X166574D01*
Y305744D01*
X183079D01*
G37*
G36*
X164331Y262592D02*X148285D01*
Y307303D01*
X148290Y307302D01*
X148753Y307339D01*
X149205Y307447D01*
X149635Y307625D01*
X150031Y307868D01*
X150384Y308170D01*
X150686Y308523D01*
X150929Y308919D01*
X151107Y309349D01*
X151215Y309801D01*
X151242Y310264D01*
X151215Y310727D01*
X151107Y311179D01*
X150929Y311609D01*
X150686Y312005D01*
X150384Y312358D01*
X150031Y312660D01*
X149635Y312903D01*
X149205Y313081D01*
X148753Y313189D01*
X148290Y313226D01*
X148285Y313225D01*
Y326624D01*
X164331D01*
Y293138D01*
X163691D01*
X163645Y293141D01*
X163460Y293127D01*
X163279Y293083D01*
X163107Y293012D01*
X162949Y292915D01*
X162949Y292915D01*
X162808Y292794D01*
X162778Y292759D01*
X153661Y283643D01*
X153552Y283669D01*
X153212Y283696D01*
X152872Y283669D01*
X152541Y283589D01*
X152226Y283459D01*
X151936Y283281D01*
X151676Y283060D01*
X151455Y282800D01*
X151277Y282510D01*
X151147Y282195D01*
X151067Y281864D01*
X151040Y281524D01*
X151067Y281184D01*
X151147Y280853D01*
X151277Y280538D01*
X151455Y280248D01*
X151676Y279988D01*
X151936Y279767D01*
X152226Y279589D01*
X152541Y279459D01*
X152872Y279379D01*
X153212Y279352D01*
X153552Y279379D01*
X153883Y279459D01*
X154198Y279589D01*
X154488Y279767D01*
X154748Y279988D01*
X154969Y280248D01*
X155147Y280538D01*
X155277Y280853D01*
X155357Y281184D01*
X155377Y281524D01*
X155357Y281864D01*
X155331Y281973D01*
X164134Y290777D01*
X164331D01*
Y262592D01*
G37*
G36*
X148285D02*X130963D01*
Y307303D01*
X130968Y307302D01*
X131431Y307339D01*
X131883Y307447D01*
X132313Y307625D01*
X132709Y307868D01*
X133062Y308170D01*
X133364Y308523D01*
X133607Y308919D01*
X133785Y309349D01*
X133893Y309801D01*
X133920Y310264D01*
X133893Y310727D01*
X133785Y311179D01*
X133607Y311609D01*
X133364Y312005D01*
X133062Y312358D01*
X132709Y312660D01*
X132313Y312903D01*
X131883Y313081D01*
X131431Y313189D01*
X130968Y313226D01*
X130963Y313225D01*
Y326624D01*
X148285D01*
Y313225D01*
X147827Y313189D01*
X147375Y313081D01*
X146945Y312903D01*
X146549Y312660D01*
X146196Y312358D01*
X145894Y312005D01*
X145651Y311609D01*
X145473Y311179D01*
X145365Y310727D01*
X145328Y310264D01*
X145365Y309801D01*
X145473Y309349D01*
X145651Y308919D01*
X145894Y308523D01*
X146196Y308170D01*
X146549Y307868D01*
X146945Y307625D01*
X147375Y307447D01*
X147827Y307339D01*
X148285Y307303D01*
Y262592D01*
G37*
G36*
X130963D02*X123422D01*
X106718Y279296D01*
Y326624D01*
X130963D01*
Y313225D01*
X130505Y313189D01*
X130053Y313081D01*
X129623Y312903D01*
X129227Y312660D01*
X128874Y312358D01*
X128572Y312005D01*
X128329Y311609D01*
X128151Y311179D01*
X128043Y310727D01*
X128006Y310264D01*
X128043Y309801D01*
X128151Y309349D01*
X128329Y308919D01*
X128572Y308523D01*
X128874Y308170D01*
X129227Y307868D01*
X129623Y307625D01*
X130053Y307447D01*
X130505Y307339D01*
X130963Y307303D01*
Y262592D01*
G37*
G36*
X126570Y177734D02*X127324Y176980D01*
X126991Y177060D01*
X126638Y177088D01*
X126570Y177083D01*
Y177734D01*
G37*
G36*
X180773Y252152D02*X187454D01*
Y191955D01*
X187386Y192013D01*
X187290Y192072D01*
Y193357D01*
X187294Y193403D01*
X187280Y193588D01*
X187280Y193588D01*
X187236Y193769D01*
X187165Y193941D01*
X187068Y194099D01*
X186947Y194240D01*
X186912Y194270D01*
X184687Y196496D01*
X184802Y196684D01*
X185073Y197338D01*
X185238Y198027D01*
X185280Y198733D01*
X185238Y199439D01*
X185073Y200128D01*
X184802Y200782D01*
X184432Y201386D01*
X183972Y201925D01*
X183433Y202385D01*
X182829Y202755D01*
X182175Y203026D01*
X181486Y203191D01*
X180780Y203247D01*
X180773Y203246D01*
Y204220D01*
X180780Y204219D01*
X181486Y204275D01*
X182175Y204440D01*
X182829Y204711D01*
X183433Y205081D01*
X183972Y205541D01*
X184432Y206080D01*
X184802Y206684D01*
X185073Y207338D01*
X185238Y208027D01*
X185280Y208733D01*
X185238Y209439D01*
X185073Y210128D01*
X184802Y210782D01*
X184432Y211386D01*
X183972Y211925D01*
X183433Y212385D01*
X182829Y212755D01*
X182175Y213026D01*
X181486Y213191D01*
X180780Y213247D01*
X180773Y213246D01*
Y252152D01*
G37*
G36*
Y184240D02*X184015Y184247D01*
X184245Y184302D01*
X184463Y184392D01*
X184664Y184516D01*
X184844Y184669D01*
X184997Y184849D01*
X185121Y185050D01*
X185211Y185268D01*
X185266Y185498D01*
X185280Y185733D01*
X185274Y188259D01*
X185439Y188191D01*
X185770Y188111D01*
X186110Y188084D01*
X186450Y188111D01*
X186781Y188191D01*
X187096Y188321D01*
X187386Y188499D01*
X187454Y188557D01*
Y46136D01*
X180773D01*
Y184240D01*
G37*
G36*
X184930Y192914D02*Y192697D01*
X184844Y192797D01*
X184664Y192950D01*
X184463Y193074D01*
X184245Y193164D01*
X184015Y193219D01*
X183780Y193233D01*
X180773Y193226D01*
Y194220D01*
X180780Y194219D01*
X181486Y194275D01*
X182175Y194440D01*
X182829Y194711D01*
X183017Y194826D01*
X184930Y192914D01*
G37*
G36*
X180773Y193226D02*X177545Y193219D01*
X177315Y193164D01*
X177097Y193074D01*
X176896Y192950D01*
X176716Y192797D01*
X176563Y192617D01*
X176439Y192416D01*
X176349Y192198D01*
X176294Y191968D01*
X176280Y191733D01*
X176294Y185498D01*
X176349Y185268D01*
X176439Y185050D01*
X176563Y184849D01*
X176716Y184669D01*
X176896Y184516D01*
X177097Y184392D01*
X177315Y184302D01*
X177545Y184247D01*
X177780Y184233D01*
X180773Y184240D01*
Y46136D01*
X174393D01*
Y186035D01*
X174432Y186080D01*
X174802Y186684D01*
X175073Y187338D01*
X175238Y188027D01*
X175280Y188733D01*
X175238Y189439D01*
X175073Y190128D01*
X174802Y190782D01*
X174432Y191386D01*
X174393Y191431D01*
Y196035D01*
X174432Y196080D01*
X174802Y196684D01*
X175073Y197338D01*
X175238Y198027D01*
X175280Y198733D01*
X175238Y199439D01*
X175073Y200128D01*
X174802Y200782D01*
X174432Y201386D01*
X174393Y201431D01*
Y206586D01*
X174436Y206593D01*
X174548Y206630D01*
X174653Y206685D01*
X174748Y206755D01*
X174831Y206839D01*
X174899Y206935D01*
X174950Y207041D01*
X175098Y207449D01*
X175202Y207870D01*
X175264Y208300D01*
X175285Y208733D01*
X175264Y209166D01*
X175202Y209596D01*
X175098Y210017D01*
X174955Y210427D01*
X174902Y210533D01*
X174833Y210629D01*
X174750Y210714D01*
X174655Y210784D01*
X174549Y210839D01*
X174437Y210876D01*
X174393Y210884D01*
Y252152D01*
X180773D01*
Y213246D01*
X180074Y213191D01*
X179385Y213026D01*
X178731Y212755D01*
X178127Y212385D01*
X177588Y211925D01*
X177128Y211386D01*
X176758Y210782D01*
X176487Y210128D01*
X176322Y209439D01*
X176266Y208733D01*
X176322Y208027D01*
X176487Y207338D01*
X176758Y206684D01*
X177128Y206080D01*
X177588Y205541D01*
X178127Y205081D01*
X178731Y204711D01*
X179385Y204440D01*
X180074Y204275D01*
X180773Y204220D01*
Y203246D01*
X180074Y203191D01*
X179385Y203026D01*
X178731Y202755D01*
X178127Y202385D01*
X177588Y201925D01*
X177128Y201386D01*
X176758Y200782D01*
X176487Y200128D01*
X176322Y199439D01*
X176266Y198733D01*
X176322Y198027D01*
X176487Y197338D01*
X176758Y196684D01*
X177128Y196080D01*
X177588Y195541D01*
X178127Y195081D01*
X178731Y194711D01*
X179385Y194440D01*
X180074Y194275D01*
X180773Y194220D01*
Y193226D01*
G37*
G36*
X174393Y201431D02*X173972Y201925D01*
X173433Y202385D01*
X172829Y202755D01*
X172175Y203026D01*
X171486Y203191D01*
X170780Y203247D01*
X170773Y203246D01*
Y204228D01*
X170780Y204228D01*
X171213Y204249D01*
X171643Y204311D01*
X172064Y204415D01*
X172474Y204558D01*
X172580Y204611D01*
X172676Y204680D01*
X172761Y204763D01*
X172831Y204858D01*
X172886Y204964D01*
X172923Y205076D01*
X172943Y205193D01*
X172944Y205312D01*
X172926Y205429D01*
X172890Y205542D01*
X172837Y205648D01*
X172768Y205745D01*
X172685Y205829D01*
X172589Y205900D01*
X172484Y205954D01*
X172372Y205992D01*
X172255Y206011D01*
X172136Y206012D01*
X172019Y205994D01*
X171906Y205956D01*
X171635Y205857D01*
X171355Y205789D01*
X171069Y205747D01*
X170780Y205733D01*
X170773Y205733D01*
Y211733D01*
X170780Y211733D01*
X171069Y211719D01*
X171355Y211677D01*
X171635Y211609D01*
X171908Y211513D01*
X172019Y211475D01*
X172136Y211458D01*
X172254Y211458D01*
X172371Y211478D01*
X172483Y211515D01*
X172587Y211569D01*
X172682Y211639D01*
X172765Y211724D01*
X172834Y211820D01*
X172887Y211925D01*
X172923Y212038D01*
X172940Y212154D01*
X172939Y212272D01*
X172920Y212389D01*
X172883Y212501D01*
X172828Y212606D01*
X172758Y212701D01*
X172674Y212784D01*
X172578Y212852D01*
X172472Y212903D01*
X172064Y213051D01*
X171643Y213155D01*
X171213Y213217D01*
X170780Y213238D01*
X170773Y213238D01*
Y252152D01*
X174393D01*
Y210884D01*
X174320Y210896D01*
X174201Y210897D01*
X174084Y210879D01*
X173971Y210843D01*
X173865Y210790D01*
X173768Y210721D01*
X173684Y210638D01*
X173613Y210542D01*
X173559Y210437D01*
X173521Y210325D01*
X173502Y210208D01*
X173501Y210089D01*
X173519Y209972D01*
X173557Y209859D01*
X173656Y209588D01*
X173724Y209308D01*
X173766Y209022D01*
X173780Y208733D01*
X173766Y208444D01*
X173724Y208158D01*
X173656Y207878D01*
X173560Y207605D01*
X173522Y207494D01*
X173505Y207377D01*
X173505Y207259D01*
X173525Y207142D01*
X173562Y207030D01*
X173616Y206926D01*
X173686Y206831D01*
X173771Y206748D01*
X173867Y206679D01*
X173972Y206626D01*
X174085Y206590D01*
X174201Y206573D01*
X174319Y206574D01*
X174393Y206586D01*
Y201431D01*
G37*
G36*
Y191431D02*X173972Y191925D01*
X173433Y192385D01*
X172829Y192755D01*
X172175Y193026D01*
X171486Y193191D01*
X170780Y193247D01*
X170773Y193246D01*
Y194220D01*
X170780Y194219D01*
X171486Y194275D01*
X172175Y194440D01*
X172829Y194711D01*
X173433Y195081D01*
X173972Y195541D01*
X174393Y196035D01*
Y191431D01*
G37*
G36*
Y46136D02*X170773D01*
Y184220D01*
X170780Y184219D01*
X171486Y184275D01*
X172175Y184440D01*
X172829Y184711D01*
X173433Y185081D01*
X173972Y185541D01*
X174393Y186035D01*
Y46136D01*
G37*
G36*
X167167Y196035D02*X167588Y195541D01*
X168127Y195081D01*
X168731Y194711D01*
X169385Y194440D01*
X170074Y194275D01*
X170773Y194220D01*
Y193246D01*
X170074Y193191D01*
X169385Y193026D01*
X168731Y192755D01*
X168127Y192385D01*
X167588Y191925D01*
X167167Y191431D01*
Y196035D01*
G37*
G36*
Y252152D02*X170773D01*
Y213238D01*
X170347Y213217D01*
X169917Y213155D01*
X169496Y213051D01*
X169086Y212908D01*
X168980Y212855D01*
X168884Y212786D01*
X168799Y212703D01*
X168729Y212608D01*
X168674Y212502D01*
X168637Y212390D01*
X168617Y212273D01*
X168616Y212154D01*
X168634Y212037D01*
X168670Y211924D01*
X168723Y211818D01*
X168792Y211721D01*
X168875Y211637D01*
X168971Y211566D01*
X169076Y211512D01*
X169188Y211474D01*
X169305Y211455D01*
X169424Y211454D01*
X169541Y211472D01*
X169654Y211510D01*
X169925Y211609D01*
X170205Y211677D01*
X170491Y211719D01*
X170773Y211733D01*
Y205733D01*
X170491Y205747D01*
X170205Y205789D01*
X169925Y205857D01*
X169652Y205953D01*
X169541Y205991D01*
X169424Y206008D01*
X169306Y206008D01*
X169189Y205988D01*
X169077Y205951D01*
X168973Y205897D01*
X168878Y205827D01*
X168795Y205742D01*
X168726Y205646D01*
X168673Y205541D01*
X168637Y205428D01*
X168620Y205312D01*
X168621Y205194D01*
X168640Y205077D01*
X168677Y204965D01*
X168732Y204860D01*
X168802Y204765D01*
X168886Y204682D01*
X168982Y204614D01*
X169088Y204563D01*
X169496Y204415D01*
X169917Y204311D01*
X170347Y204249D01*
X170773Y204228D01*
Y203246D01*
X170074Y203191D01*
X169385Y203026D01*
X168731Y202755D01*
X168127Y202385D01*
X167588Y201925D01*
X167167Y201431D01*
Y206582D01*
X167240Y206570D01*
X167359Y206569D01*
X167476Y206587D01*
X167589Y206623D01*
X167695Y206676D01*
X167792Y206745D01*
X167876Y206828D01*
X167947Y206924D01*
X168001Y207029D01*
X168039Y207141D01*
X168058Y207258D01*
X168059Y207377D01*
X168041Y207494D01*
X168003Y207607D01*
X167904Y207878D01*
X167836Y208158D01*
X167794Y208444D01*
X167780Y208733D01*
X167794Y209022D01*
X167836Y209308D01*
X167904Y209588D01*
X168000Y209861D01*
X168038Y209972D01*
X168055Y210089D01*
X168055Y210207D01*
X168035Y210324D01*
X167998Y210436D01*
X167944Y210540D01*
X167874Y210635D01*
X167789Y210718D01*
X167693Y210787D01*
X167588Y210840D01*
X167475Y210876D01*
X167359Y210893D01*
X167241Y210892D01*
X167167Y210880D01*
Y252152D01*
G37*
G36*
X170773Y46136D02*X167167D01*
Y186035D01*
X167588Y185541D01*
X168127Y185081D01*
X168731Y184711D01*
X169385Y184440D01*
X170074Y184275D01*
X170773Y184220D01*
Y46136D01*
G37*
G36*
X167167D02*X166574D01*
Y25256D01*
X155022D01*
Y116336D01*
X158212Y113146D01*
X158186Y113037D01*
X158159Y112697D01*
X158186Y112357D01*
X158266Y112026D01*
X158396Y111711D01*
X158574Y111421D01*
X158795Y111161D01*
X159055Y110940D01*
X159345Y110762D01*
X159660Y110632D01*
X159991Y110552D01*
X160331Y110525D01*
X160671Y110552D01*
X161002Y110632D01*
X161317Y110762D01*
X161607Y110940D01*
X161867Y111161D01*
X162088Y111421D01*
X162266Y111711D01*
X162396Y112026D01*
X162476Y112357D01*
X162496Y112697D01*
X162476Y113037D01*
X162396Y113368D01*
X162266Y113683D01*
X162088Y113973D01*
X161867Y114233D01*
X161607Y114454D01*
X161317Y114632D01*
X161002Y114762D01*
X160671Y114842D01*
X160331Y114869D01*
X159991Y114842D01*
X159882Y114816D01*
X155022Y119675D01*
Y166060D01*
X157290D01*
X157298Y166047D01*
X157520Y165788D01*
X157779Y165566D01*
X158069Y165388D01*
X158384Y165258D01*
X158715Y165178D01*
X159055Y165151D01*
X159395Y165178D01*
X159726Y165258D01*
X160041Y165388D01*
X160332Y165566D01*
X160591Y165788D01*
X160812Y166047D01*
X160990Y166337D01*
X161121Y166652D01*
X161200Y166983D01*
X161220Y167323D01*
X161200Y167663D01*
X161121Y167994D01*
X160990Y168309D01*
X160812Y168600D01*
X160591Y168859D01*
X160332Y169080D01*
X160041Y169258D01*
X159726Y169389D01*
X159395Y169468D01*
X159055Y169495D01*
X158715Y169468D01*
X158384Y169389D01*
X158069Y169258D01*
X157779Y169080D01*
X157520Y168859D01*
X157298Y168600D01*
X157188Y168421D01*
X155022D01*
Y252152D01*
X167167D01*
Y210880D01*
X167124Y210873D01*
X167012Y210836D01*
X166907Y210781D01*
X166812Y210711D01*
X166729Y210627D01*
X166661Y210531D01*
X166610Y210425D01*
X166462Y210017D01*
X166358Y209596D01*
X166296Y209166D01*
X166275Y208733D01*
X166296Y208300D01*
X166358Y207870D01*
X166462Y207449D01*
X166605Y207039D01*
X166658Y206933D01*
X166727Y206837D01*
X166810Y206752D01*
X166905Y206682D01*
X167011Y206627D01*
X167123Y206590D01*
X167167Y206582D01*
Y201431D01*
X167128Y201386D01*
X166758Y200782D01*
X166487Y200128D01*
X166322Y199439D01*
X166266Y198733D01*
X166322Y198027D01*
X166487Y197338D01*
X166758Y196684D01*
X167128Y196080D01*
X167167Y196035D01*
Y191431D01*
X167128Y191386D01*
X166758Y190782D01*
X166487Y190128D01*
X166322Y189439D01*
X166266Y188733D01*
X166322Y188027D01*
X166487Y187338D01*
X166758Y186684D01*
X167128Y186080D01*
X167167Y186035D01*
Y46136D01*
G37*
G36*
X155022Y168421D02*X141595D01*
Y177384D01*
X141598Y177383D01*
X141938Y177410D01*
X142269Y177490D01*
X142584Y177620D01*
X142874Y177798D01*
X143134Y178019D01*
X143355Y178279D01*
X143533Y178569D01*
X143663Y178884D01*
X143743Y179215D01*
X143763Y179555D01*
X143743Y179895D01*
X143663Y180226D01*
X143533Y180541D01*
X143355Y180831D01*
X143134Y181091D01*
X142874Y181312D01*
X142778Y181371D01*
Y190338D01*
X142874Y190397D01*
X143134Y190618D01*
X143355Y190878D01*
X143533Y191168D01*
X143663Y191483D01*
X143743Y191814D01*
X143763Y192154D01*
X143743Y192494D01*
X143663Y192825D01*
X143533Y193140D01*
X143355Y193430D01*
X143134Y193690D01*
X142874Y193911D01*
X142584Y194089D01*
X142269Y194219D01*
X141938Y194299D01*
X141598Y194326D01*
X141595Y194325D01*
Y212493D01*
X141710Y212484D01*
X142050Y212511D01*
X142381Y212591D01*
X142696Y212721D01*
X142986Y212899D01*
X143246Y213120D01*
X143467Y213380D01*
X143645Y213670D01*
X143775Y213985D01*
X143855Y214316D01*
X143875Y214656D01*
X143855Y214996D01*
X143775Y215327D01*
X143645Y215642D01*
X143467Y215932D01*
X143246Y216192D01*
X143218Y216215D01*
X143101Y216347D01*
X141595Y217853D01*
Y252152D01*
X155022D01*
Y168421D01*
G37*
G36*
Y25256D02*X141595D01*
Y29857D01*
X141865Y30297D01*
X142315Y31385D01*
X142590Y32530D01*
X142660Y33704D01*
X142590Y34878D01*
X142315Y36023D01*
X141865Y37111D01*
X141595Y37551D01*
Y90093D01*
X141865Y90533D01*
X142315Y91621D01*
X142590Y92766D01*
X142660Y93940D01*
X142590Y95114D01*
X142315Y96259D01*
X141865Y97347D01*
X141595Y97787D01*
Y166060D01*
X155022D01*
Y119675D01*
X151879Y122818D01*
X151885Y122915D01*
X151865Y123255D01*
X151785Y123586D01*
X151655Y123901D01*
X151477Y124191D01*
X151256Y124451D01*
X150996Y124672D01*
X150706Y124850D01*
X150391Y124980D01*
X150060Y125060D01*
X149720Y125087D01*
X149380Y125060D01*
X149049Y124980D01*
X148734Y124850D01*
X148444Y124672D01*
X148184Y124451D01*
X147963Y124191D01*
X147785Y123901D01*
X147655Y123586D01*
X147575Y123255D01*
X147548Y122915D01*
X147575Y122575D01*
X147655Y122244D01*
X147785Y121929D01*
X147963Y121639D01*
X148184Y121379D01*
X148444Y121158D01*
X148734Y120980D01*
X149049Y120850D01*
X149380Y120770D01*
X149720Y120743D01*
X150060Y120770D01*
X150391Y120850D01*
X150474Y120884D01*
X155022Y116336D01*
Y25256D01*
G37*
G36*
X141595Y217853D02*X139460Y219988D01*
Y229256D01*
X139439Y229609D01*
X139356Y229953D01*
X139221Y230281D01*
X139036Y230583D01*
X138806Y230852D01*
X138537Y231082D01*
X138235Y231267D01*
X137907Y231402D01*
X137563Y231485D01*
X137210Y231513D01*
X136857Y231485D01*
X136513Y231402D01*
X136185Y231267D01*
X135883Y231082D01*
X135614Y230852D01*
X135384Y230583D01*
X135199Y230281D01*
X135170Y230210D01*
X135144Y230168D01*
X135014Y229853D01*
X134934Y229522D01*
X134907Y229182D01*
X134934Y228842D01*
X134960Y228734D01*
Y220388D01*
X128578Y214006D01*
X126570D01*
Y252152D01*
X141595D01*
Y217853D01*
G37*
G36*
Y168421D02*X139223D01*
X126570Y181073D01*
Y204553D01*
X126636Y204629D01*
X126821Y204931D01*
X126956Y205259D01*
X127039Y205603D01*
X127067Y205956D01*
X127039Y206309D01*
X126956Y206653D01*
X126821Y206981D01*
X126636Y207283D01*
X126570Y207359D01*
Y209506D01*
X129422D01*
X129510Y209499D01*
X129863Y209527D01*
X129863Y209527D01*
X130207Y209610D01*
X130535Y209745D01*
X130837Y209930D01*
X131106Y210160D01*
X131163Y210227D01*
X137010Y216074D01*
X139919Y213165D01*
X140183Y212930D01*
X140485Y212745D01*
X140813Y212610D01*
X141157Y212527D01*
X141510Y212499D01*
X141516Y212500D01*
X141595Y212493D01*
Y194325D01*
X141258Y194299D01*
X140927Y194219D01*
X140612Y194089D01*
X140322Y193911D01*
X140062Y193690D01*
X139841Y193430D01*
X139663Y193140D01*
X139533Y192825D01*
X139453Y192494D01*
X139426Y192154D01*
X139453Y191814D01*
X139533Y191483D01*
X139663Y191168D01*
X139841Y190878D01*
X140062Y190618D01*
X140322Y190397D01*
X140417Y190338D01*
Y181371D01*
X140322Y181312D01*
X140062Y181091D01*
X139841Y180831D01*
X139663Y180541D01*
X139533Y180226D01*
X139453Y179895D01*
X139426Y179555D01*
X139453Y179215D01*
X139533Y178884D01*
X139663Y178569D01*
X139841Y178279D01*
X140062Y178019D01*
X140322Y177798D01*
X140612Y177620D01*
X140927Y177490D01*
X141258Y177410D01*
X141595Y177384D01*
Y168421D01*
G37*
G36*
Y25256D02*X126570D01*
Y148541D01*
X126614Y148537D01*
X126954Y148564D01*
X127285Y148644D01*
X127600Y148774D01*
X127891Y148952D01*
X128150Y149173D01*
X128371Y149433D01*
X128549Y149723D01*
X128680Y150038D01*
X128759Y150369D01*
X128779Y150709D01*
X128759Y151049D01*
X128680Y151380D01*
X128549Y151695D01*
X128371Y151985D01*
X128150Y152245D01*
X127891Y152466D01*
X127714Y152574D01*
Y154504D01*
X127809Y154563D01*
X128069Y154784D01*
X128290Y155044D01*
X128468Y155334D01*
X128598Y155649D01*
X128678Y155980D01*
X128698Y156320D01*
X128678Y156660D01*
X128598Y156991D01*
X128468Y157306D01*
X128290Y157596D01*
X128069Y157856D01*
X127809Y158077D01*
X127519Y158255D01*
X127204Y158385D01*
X126873Y158465D01*
X126570Y158489D01*
Y171534D01*
X128167Y173131D01*
X128234Y173188D01*
X128464Y173457D01*
X128464Y173457D01*
X128649Y173759D01*
X128784Y174087D01*
X128867Y174431D01*
X128895Y174784D01*
X128878Y174996D01*
X128867Y175184D01*
X128787Y175517D01*
X137867Y166438D01*
X137897Y166403D01*
X138038Y166282D01*
X138196Y166185D01*
X138368Y166114D01*
X138549Y166070D01*
X138549Y166070D01*
X138734Y166056D01*
X138780Y166060D01*
X141595D01*
Y97787D01*
X141250Y98350D01*
X140485Y99246D01*
X139589Y100011D01*
X138586Y100626D01*
X137498Y101076D01*
X136353Y101351D01*
X135179Y101444D01*
X134005Y101351D01*
X132860Y101076D01*
X131772Y100626D01*
X130769Y100011D01*
X129873Y99246D01*
X129108Y98350D01*
X128493Y97347D01*
X128043Y96259D01*
X127768Y95114D01*
X127675Y93940D01*
X127768Y92766D01*
X128043Y91621D01*
X128493Y90533D01*
X129108Y89530D01*
X129873Y88634D01*
X130769Y87869D01*
X131772Y87254D01*
X132860Y86804D01*
X134005Y86529D01*
X135179Y86436D01*
X136353Y86529D01*
X137498Y86804D01*
X138586Y87254D01*
X139589Y87869D01*
X140485Y88634D01*
X141250Y89530D01*
X141595Y90093D01*
Y37551D01*
X141250Y38114D01*
X140485Y39010D01*
X139589Y39775D01*
X138586Y40390D01*
X137498Y40840D01*
X136353Y41115D01*
X135179Y41208D01*
X134005Y41115D01*
X132860Y40840D01*
X131772Y40390D01*
X130769Y39775D01*
X129873Y39010D01*
X129108Y38114D01*
X128493Y37111D01*
X128043Y36023D01*
X127768Y34878D01*
X127675Y33704D01*
X127768Y32530D01*
X128043Y31385D01*
X128493Y30297D01*
X129108Y29294D01*
X129873Y28398D01*
X130769Y27633D01*
X131772Y27018D01*
X132860Y26568D01*
X134005Y26293D01*
X135179Y26200D01*
X136353Y26293D01*
X137498Y26568D01*
X138586Y27018D01*
X139589Y27633D01*
X140485Y28398D01*
X141250Y29294D01*
X141595Y29857D01*
Y25256D01*
G37*
G36*
X126570Y207359D02*X126406Y207552D01*
X126137Y207782D01*
X125835Y207967D01*
X125507Y208102D01*
X125163Y208185D01*
X124810Y208206D01*
X117522D01*
X110833Y214895D01*
Y259173D01*
X117854Y252152D01*
X126570D01*
Y214006D01*
X123210D01*
X122857Y213985D01*
X122513Y213902D01*
X122185Y213767D01*
X121883Y213582D01*
X121614Y213352D01*
X121384Y213083D01*
X121199Y212781D01*
X121064Y212453D01*
X120981Y212109D01*
X120953Y211756D01*
X120981Y211403D01*
X121064Y211059D01*
X121199Y210731D01*
X121384Y210429D01*
X121614Y210160D01*
X121883Y209930D01*
X122185Y209745D01*
X122513Y209610D01*
X122857Y209527D01*
X123210Y209506D01*
X126570D01*
Y207359D01*
G37*
G36*
Y25256D02*X110833D01*
Y135600D01*
X111166Y135620D01*
X111510Y135703D01*
X111838Y135838D01*
X112140Y136023D01*
X112409Y136253D01*
X112639Y136522D01*
X112824Y136824D01*
X112959Y137152D01*
X113042Y137496D01*
X113070Y137849D01*
X113042Y138202D01*
X112959Y138546D01*
X112824Y138874D01*
X112639Y139176D01*
X112409Y139445D01*
X112140Y139675D01*
X111838Y139860D01*
X111510Y139995D01*
X111166Y140078D01*
X110833Y140098D01*
Y146100D01*
X112534D01*
X112593Y146005D01*
X112814Y145745D01*
X113074Y145524D01*
X113364Y145346D01*
X113679Y145216D01*
X114010Y145136D01*
X114350Y145109D01*
X114690Y145136D01*
X115021Y145216D01*
X115336Y145346D01*
X115626Y145524D01*
X115886Y145745D01*
X116107Y146005D01*
X116285Y146295D01*
X116415Y146610D01*
X116495Y146941D01*
X116515Y147281D01*
X116495Y147621D01*
X116415Y147952D01*
X116285Y148267D01*
X116107Y148557D01*
X115886Y148817D01*
X115626Y149038D01*
X115336Y149216D01*
X115021Y149346D01*
X114690Y149426D01*
X114350Y149453D01*
X114010Y149426D01*
X113679Y149346D01*
X113364Y149216D01*
X113074Y149038D01*
X112814Y148817D01*
X112593Y148557D01*
X112534Y148462D01*
X110833D01*
Y208531D01*
X114937Y204427D01*
X114994Y204360D01*
X115263Y204130D01*
X115263Y204130D01*
X115565Y203945D01*
X115893Y203810D01*
X116237Y203727D01*
X116590Y203699D01*
X116678Y203706D01*
X124810D01*
X125163Y203727D01*
X125507Y203810D01*
X125835Y203945D01*
X126137Y204130D01*
X126406Y204360D01*
X126570Y204553D01*
Y181073D01*
X118721Y188922D01*
X118691Y188957D01*
X118550Y189078D01*
X118392Y189175D01*
X118220Y189246D01*
X118039Y189290D01*
X118039Y189290D01*
X117854Y189304D01*
X117808Y189301D01*
X115494D01*
X115435Y189396D01*
X115214Y189656D01*
X114954Y189877D01*
X114664Y190055D01*
X114349Y190185D01*
X114018Y190265D01*
X113678Y190292D01*
X113338Y190265D01*
X113007Y190185D01*
X112692Y190055D01*
X112402Y189877D01*
X112142Y189656D01*
X111921Y189396D01*
X111743Y189106D01*
X111613Y188791D01*
X111533Y188460D01*
X111506Y188120D01*
X111533Y187780D01*
X111613Y187449D01*
X111743Y187134D01*
X111921Y186844D01*
X112142Y186584D01*
X112402Y186363D01*
X112692Y186185D01*
X113007Y186055D01*
X113338Y185975D01*
X113678Y185948D01*
X114018Y185975D01*
X114349Y186055D01*
X114664Y186185D01*
X114954Y186363D01*
X115214Y186584D01*
X115435Y186844D01*
X115494Y186940D01*
X117365D01*
X126570Y177734D01*
Y177083D01*
X126285Y177060D01*
X125941Y176977D01*
X125613Y176842D01*
X125311Y176657D01*
X125042Y176427D01*
X124812Y176158D01*
X124784Y176112D01*
X122471Y173799D01*
X122404Y173742D01*
X122174Y173473D01*
X121989Y173171D01*
X121854Y172843D01*
X121771Y172499D01*
X121771Y172499D01*
X121743Y172146D01*
X121750Y172058D01*
Y165646D01*
X121771Y165293D01*
X121854Y164949D01*
X121989Y164621D01*
X122174Y164319D01*
X122404Y164050D01*
X122673Y163820D01*
X122975Y163635D01*
X123303Y163500D01*
X123647Y163417D01*
X124000Y163389D01*
X124353Y163417D01*
X124697Y163500D01*
X125025Y163635D01*
X125327Y163820D01*
X125596Y164050D01*
X125826Y164319D01*
X126011Y164621D01*
X126146Y164949D01*
X126229Y165293D01*
X126250Y165646D01*
Y171214D01*
X126570Y171534D01*
Y158489D01*
X126533Y158492D01*
X126193Y158465D01*
X125862Y158385D01*
X125547Y158255D01*
X125257Y158077D01*
X124997Y157856D01*
X124776Y157596D01*
X124598Y157306D01*
X124468Y156991D01*
X124388Y156660D01*
X124361Y156320D01*
X124388Y155980D01*
X124468Y155649D01*
X124598Y155334D01*
X124776Y155044D01*
X124997Y154784D01*
X125257Y154563D01*
X125352Y154504D01*
Y152475D01*
X125338Y152466D01*
X125079Y152245D01*
X124857Y151985D01*
X124679Y151695D01*
X124549Y151380D01*
X124469Y151049D01*
X124442Y150709D01*
X124469Y150369D01*
X124549Y150038D01*
X124679Y149723D01*
X124857Y149433D01*
X125079Y149173D01*
X125338Y148952D01*
X125628Y148774D01*
X125943Y148644D01*
X126274Y148564D01*
X126570Y148541D01*
Y25256D01*
G37*
G36*
X110833D02*X80532D01*
Y187108D01*
X80856Y187186D01*
X81184Y187321D01*
X81486Y187506D01*
X81755Y187736D01*
X81985Y188005D01*
X82170Y188307D01*
X82305Y188635D01*
X82388Y188979D01*
X82409Y189332D01*
Y197928D01*
X82496Y198016D01*
X82731Y198280D01*
X82916Y198582D01*
X83052Y198909D01*
X83135Y199254D01*
X83162Y199607D01*
X83135Y199960D01*
X83052Y200304D01*
X82916Y200631D01*
X82731Y200933D01*
X82501Y201203D01*
X82232Y201433D01*
X81930Y201618D01*
X81603Y201753D01*
X81259Y201836D01*
X80906Y201864D01*
X80552Y201836D01*
X80532Y201831D01*
Y326624D01*
X95582D01*
Y274424D01*
X110833Y259173D01*
Y214895D01*
X108867Y216861D01*
X108603Y217096D01*
X108301Y217281D01*
X107973Y217416D01*
X107629Y217499D01*
X107276Y217527D01*
X106923Y217499D01*
X106579Y217416D01*
X106251Y217281D01*
X105949Y217096D01*
X105680Y216866D01*
X105450Y216597D01*
X105265Y216295D01*
X105130Y215967D01*
X105047Y215623D01*
X105019Y215270D01*
X105047Y214917D01*
X105130Y214573D01*
X105265Y214245D01*
X105450Y213943D01*
X105685Y213679D01*
X110833Y208531D01*
Y148462D01*
X109164D01*
X109080Y148600D01*
X108858Y148859D01*
X108599Y149080D01*
X108309Y149258D01*
X107994Y149389D01*
X107663Y149468D01*
X107323Y149495D01*
X106983Y149468D01*
X106652Y149389D01*
X106337Y149258D01*
X106046Y149080D01*
X105787Y148859D01*
X105566Y148600D01*
X105388Y148309D01*
X105257Y147994D01*
X105178Y147663D01*
X105151Y147323D01*
X105178Y146983D01*
X105257Y146652D01*
X105388Y146337D01*
X105566Y146047D01*
X105787Y145788D01*
X106046Y145566D01*
X106337Y145388D01*
X106652Y145258D01*
X106983Y145178D01*
X107323Y145151D01*
X107663Y145178D01*
X107994Y145258D01*
X108309Y145388D01*
X108599Y145566D01*
X108858Y145788D01*
X109080Y146047D01*
X109113Y146100D01*
X110833D01*
Y140098D01*
X110813Y140099D01*
X101774D01*
X101421Y140078D01*
X101077Y139995D01*
X100749Y139860D01*
X100447Y139675D01*
X100178Y139445D01*
X99948Y139176D01*
X99763Y138874D01*
X99628Y138546D01*
X99545Y138202D01*
X99517Y137849D01*
X99545Y137496D01*
X99628Y137152D01*
X99763Y136824D01*
X99948Y136522D01*
X100178Y136253D01*
X100447Y136023D01*
X100749Y135838D01*
X101077Y135703D01*
X101421Y135620D01*
X101774Y135599D01*
X110813D01*
X110833Y135600D01*
Y25256D01*
G37*
G36*
X80532D02*X60497D01*
Y26201D01*
X60509Y26200D01*
X61683Y26293D01*
X62828Y26568D01*
X63916Y27018D01*
X64919Y27633D01*
X65815Y28398D01*
X66580Y29294D01*
X67195Y30297D01*
X67645Y31385D01*
X67920Y32530D01*
X67990Y33704D01*
X67920Y34878D01*
X67645Y36023D01*
X67195Y37111D01*
X66580Y38114D01*
X65815Y39010D01*
X64919Y39775D01*
X63916Y40390D01*
X62828Y40840D01*
X61683Y41115D01*
X60509Y41208D01*
X60497Y41207D01*
Y86437D01*
X60509Y86436D01*
X61683Y86529D01*
X62828Y86804D01*
X63916Y87254D01*
X64919Y87869D01*
X65815Y88634D01*
X66580Y89530D01*
X67195Y90533D01*
X67645Y91621D01*
X67920Y92766D01*
X67990Y93940D01*
X67920Y95114D01*
X67645Y96259D01*
X67195Y97347D01*
X66580Y98350D01*
X65815Y99246D01*
X64919Y100011D01*
X63916Y100626D01*
X62828Y101076D01*
X61683Y101351D01*
X60509Y101444D01*
X60497Y101443D01*
Y292093D01*
X60937Y292362D01*
X61502Y292845D01*
X61985Y293410D01*
X62374Y294045D01*
X62658Y294732D01*
X62832Y295455D01*
X62876Y296196D01*
X62832Y296937D01*
X62658Y297660D01*
X62374Y298347D01*
X61985Y298982D01*
X61502Y299547D01*
X60937Y300030D01*
X60497Y300299D01*
Y310272D01*
X60704Y310399D01*
X61223Y310841D01*
X61665Y311360D01*
X62021Y311941D01*
X62282Y312571D01*
X62441Y313233D01*
X62482Y313913D01*
X62441Y314593D01*
X62282Y315255D01*
X62021Y315885D01*
X61665Y316466D01*
X61223Y316985D01*
X60704Y317427D01*
X60497Y317554D01*
Y326624D01*
X80532D01*
Y201831D01*
X80208Y201753D01*
X79881Y201618D01*
X79579Y201433D01*
X79315Y201198D01*
X78630Y200513D01*
X78563Y200456D01*
X78333Y200187D01*
X78148Y199885D01*
X78013Y199558D01*
X77930Y199213D01*
X77930Y199213D01*
X77902Y198860D01*
X77909Y198772D01*
Y189332D01*
X77930Y188979D01*
X78013Y188635D01*
X78148Y188307D01*
X78333Y188005D01*
X78563Y187736D01*
X78832Y187506D01*
X79134Y187321D01*
X79462Y187186D01*
X79806Y187103D01*
X80159Y187075D01*
X80512Y187103D01*
X80532Y187108D01*
Y25256D01*
G37*
G36*
X60497D02*X28766D01*
Y46136D01*
X7886D01*
Y305744D01*
X28766D01*
Y326624D01*
X60497D01*
Y317554D01*
X60123Y317783D01*
X59493Y318044D01*
X58831Y318203D01*
X58151Y318257D01*
X57471Y318203D01*
X56809Y318044D01*
X56179Y317783D01*
X55598Y317427D01*
X55079Y316985D01*
X54637Y316466D01*
X54281Y315885D01*
X54020Y315255D01*
X53861Y314593D01*
X53807Y313913D01*
X53861Y313233D01*
X54020Y312571D01*
X54281Y311941D01*
X54637Y311360D01*
X55079Y310841D01*
X55598Y310399D01*
X56179Y310043D01*
X56809Y309782D01*
X57471Y309623D01*
X58151Y309569D01*
X58831Y309623D01*
X59493Y309782D01*
X60123Y310043D01*
X60497Y310272D01*
Y300299D01*
X60302Y300419D01*
X59615Y300703D01*
X58892Y300877D01*
X58151Y300935D01*
X57410Y300877D01*
X56687Y300703D01*
X56000Y300419D01*
X55365Y300030D01*
X54800Y299547D01*
X54317Y298982D01*
X53928Y298347D01*
X53644Y297660D01*
X53470Y296937D01*
X53412Y296196D01*
X53470Y295455D01*
X53644Y294732D01*
X53928Y294045D01*
X54317Y293410D01*
X54800Y292845D01*
X55365Y292362D01*
X56000Y291973D01*
X56687Y291689D01*
X57410Y291515D01*
X58151Y291457D01*
X58892Y291515D01*
X59615Y291689D01*
X60302Y291973D01*
X60497Y292093D01*
Y101443D01*
X59335Y101351D01*
X58190Y101076D01*
X57102Y100626D01*
X56099Y100011D01*
X55203Y99246D01*
X54438Y98350D01*
X53823Y97347D01*
X53373Y96259D01*
X53098Y95114D01*
X53005Y93940D01*
X53098Y92766D01*
X53373Y91621D01*
X53823Y90533D01*
X54438Y89530D01*
X55203Y88634D01*
X56099Y87869D01*
X57102Y87254D01*
X58190Y86804D01*
X59335Y86529D01*
X60497Y86437D01*
Y41207D01*
X59335Y41115D01*
X58190Y40840D01*
X57102Y40390D01*
X56099Y39775D01*
X55203Y39010D01*
X54438Y38114D01*
X53823Y37111D01*
X53373Y36023D01*
X53098Y34878D01*
X53005Y33704D01*
X53098Y32530D01*
X53373Y31385D01*
X53823Y30297D01*
X54438Y29294D01*
X55203Y28398D01*
X56099Y27633D01*
X57102Y27018D01*
X58190Y26568D01*
X59335Y26293D01*
X60497Y26201D01*
Y25256D01*
G37*
G54D272*X163645Y291957D02*X153212Y281524D01*
X175456Y291957D02*X163645D01*
X186110Y193403D02*X180780Y198733D01*
X186110Y190256D02*Y193403D01*
X113678Y188120D02*X117854D01*
G54D273*X116590Y205956D02*X107276Y215270D01*
X124810Y205956D02*X116590D01*
X129510Y211756D02*X137210Y219456D01*
X123210Y211756D02*X129510D01*
X137210Y219056D02*X141510Y214756D01*
X137210Y229256D02*Y219056D01*
G54D272*X138734Y167240D02*X158918D01*
X117854Y188120D02*X138734Y167240D01*
X141598Y179555D02*Y192154D01*
G54D273*X126638Y174831D02*Y174784D01*
X124000Y172146D01*
G54D272*X107276Y147281D02*X114350D01*
G54D273*X101774Y137849D02*X110813D01*
G54D272*X126533Y156320D02*Y150425D01*
X150113Y122915D02*X160331Y112697D01*
X149720Y122915D02*X150113D01*
G54D273*X124000Y172146D02*Y165646D01*
X80159Y189332D02*Y198860D01*
X80906Y199607D01*
G54D271*G36*
X177780Y191733D02*Y185733D01*
X183780D01*
Y191733D01*
X177780D01*
G37*
G54D274*X170780Y188733D03*
X180780Y198733D03*
X170780D03*
X180780Y208733D03*
X170780D03*
G54D275*X60509Y33704D03*
Y93940D03*
X135179Y33704D03*
Y93940D03*
G54D276*X164486Y28040D03*
Y32216D03*
X160310Y28040D03*
Y32216D03*
X164486Y44744D03*
Y36392D03*
Y40568D03*
X160310Y36392D03*
Y40568D03*
Y44744D03*
X140023Y160264D03*
X140220Y153374D03*
X186110Y190256D03*
X181500Y153146D03*
X163780Y149607D03*
X159055Y167323D03*
X141795Y116366D03*
X149720Y122915D03*
X155968Y109280D03*
X160331Y112697D03*
X174670Y131918D03*
X172441Y118307D03*
X168662Y48920D03*
X185366D03*
X181190D03*
X177014D03*
X172838D03*
X164486D03*
X160310D03*
Y53096D03*
Y57272D03*
X168662Y61448D03*
X164486D03*
X168662Y65624D03*
X164486D03*
X160310Y61448D03*
Y65624D03*
X185366Y61448D03*
Y53096D03*
Y57272D03*
X181190Y61448D03*
Y65624D03*
X177014Y61448D03*
Y65624D03*
X185366D03*
X181190Y53096D03*
Y57272D03*
X177014Y53096D03*
Y57272D03*
X172838Y61448D03*
Y65624D03*
X9974Y282776D03*
Y271640D03*
X12758Y288344D03*
Y266072D03*
X18326D03*
X25286Y277208D03*
X18326D03*
X12758D03*
X14846Y271640D03*
X19718D03*
X11366Y199256D03*
X16934D03*
Y210392D03*
X11366D03*
Y215960D03*
X16934D03*
X11366Y221528D03*
X16934D03*
Y227096D03*
X11366D03*
X16934Y232664D03*
Y238232D03*
Y243800D03*
Y254936D03*
Y260504D03*
X11366Y232664D03*
Y238232D03*
Y243800D03*
Y254936D03*
Y260504D03*
X25286Y282776D03*
X19718D03*
X14846D03*
X18326Y288344D03*
X25286D03*
Y293912D03*
Y299480D03*
Y305048D03*
X14150Y293912D03*
X19718D03*
X18326Y299480D03*
X12758D03*
X47558Y288344D03*
Y293912D03*
Y299480D03*
X41990D03*
Y293912D03*
X36422Y299480D03*
Y305048D03*
X30854Y299480D03*
Y305048D03*
X41990D03*
X47558D03*
Y310616D03*
Y316184D03*
X41990Y310616D03*
Y316184D03*
X47558Y321752D03*
X41990D03*
X36422D03*
X30854D03*
X11366Y126872D03*
X16934D03*
X11366Y132440D03*
Y138008D03*
Y143576D03*
X16934Y132440D03*
Y138008D03*
Y143576D03*
Y154712D03*
Y160280D03*
X11366Y154712D03*
Y160280D03*
Y165848D03*
Y188120D03*
Y193688D03*
X16934Y165848D03*
Y188120D03*
Y193688D03*
X30854Y282776D03*
X36422D03*
X41990D03*
Y288344D03*
X58330Y266169D03*
X113678Y188120D03*
X88252Y171681D03*
X111283Y177390D03*
X88842Y142154D03*
X134315Y179162D03*
X103606Y156721D03*
X126638Y174831D03*
X124000Y165646D03*
X126533Y156320D03*
X114350Y147281D03*
X110813Y137849D03*
X107323Y147323D03*
X101774Y137849D03*
X126614Y150709D03*
X157346Y173847D03*
X151441Y221287D03*
X154590Y197075D03*
X141598Y192154D03*
Y179555D03*
X141710Y214656D03*
X76834Y211642D03*
X124810Y205956D03*
X123210Y211756D03*
X131693Y206300D03*
X107149Y202587D03*
X105968Y226996D03*
X97307Y223453D03*
X114039Y246681D03*
X92976D03*
X96913Y197469D03*
X80159Y189332D03*
X89567Y193504D03*
X80906Y199607D03*
X107276Y215270D03*
X137079Y229182D03*
X130382Y295304D03*
X131078Y280688D03*
X124814Y302264D03*
Y309224D03*
X156830Y308528D03*
X161702D03*
X165182Y302264D03*
X130382D03*
X124814Y295304D03*
X115766D03*
Y302264D03*
Y309224D03*
Y316184D03*
Y323144D03*
X124814D03*
Y316184D03*
X126206Y272336D03*
X179102Y276512D03*
X147782Y278600D03*
X175456Y291957D03*
X153212Y281524D03*
X160500Y282146D03*
G54D277*G54D278*G54D279*G54D280*G54D281*G54D282*G54D281*G54D283*G54D278*G54D280*M02*
