G04 start of page 2 for group 0 idx 0 *
G04 Title: (unknown), component *
G04 Creator: pcb 20110918 *
G04 CreationDate: So 13 Jul 2014 20:19:28 GMT UTC *
G04 For: ffg *
G04 Format: Gerber/RS-274X *
G04 PCB-Dimensions: 196850 334646 *
G04 PCB-Coordinate-Origin: lower left *
%MOIN*%
%FSLAX25Y25*%
%LNTOP*%
%ADD270C,0.0630*%
%ADD269C,0.0709*%
%ADD268C,0.0787*%
%ADD267C,0.1221*%
%ADD266C,0.0394*%
%ADD265C,0.0354*%
%ADD264C,0.0138*%
%ADD263C,0.0276*%
%ADD262R,0.0339X0.0339*%
%ADD261R,0.0630X0.0630*%
%ADD260R,0.0340X0.0340*%
%ADD259R,0.0709X0.0709*%
%ADD258R,0.1102X0.1102*%
%ADD257R,0.0197X0.0197*%
%ADD256R,0.0827X0.0827*%
%ADD255R,0.0472X0.0472*%
%ADD254R,0.0161X0.0161*%
%ADD253R,0.0512X0.0512*%
%ADD252R,0.0157X0.0157*%
%ADD251R,0.0394X0.0394*%
%ADD250R,0.0240X0.0240*%
%ADD249R,0.0165X0.0165*%
%ADD248R,0.0787X0.0787*%
%ADD247R,0.0748X0.0748*%
%ADD246C,0.1181*%
%ADD245C,0.0001*%
%ADD244C,0.0250*%
%ADD243C,0.0079*%
%ADD242C,0.1575*%
%ADD241C,0.0600*%
G54D241*X180374Y64751D02*Y48638D01*
X176444Y64751D02*Y48638D01*
X170942Y64751D02*Y48638D01*
X165833Y64751D02*Y42350D01*
X163868Y27809D02*X161117D01*
X163868Y40385D02*Y27809D01*
X172121Y48638D02*X163868Y40385D01*
X161117Y27809D02*Y64751D01*
X184697Y48638D02*X172121D01*
X135190Y50199D02*X135179Y50210D01*
X184697Y64751D02*Y48638D01*
X161117Y64751D02*X184697D01*
G54D242*X175658Y80471D02*X135179D01*
G54D243*X165047Y93441D02*Y93499D01*
X181496Y89903D02*X182480Y90887D01*
G54D241*X143825Y70253D02*Y36062D01*
X148541Y70253D02*X143825D01*
X148541Y31739D02*Y70253D01*
X152078Y27809D02*Y80864D01*
G54D242*X135179Y39206D02*Y91868D01*
G54D244*X155968Y111871D02*X156008Y111911D01*
X155968Y109280D02*Y111871D01*
G54D243*X160331Y112697D02*X173786D01*
X149900Y108646D02*X137100D01*
X136400Y107046D02*X149083D01*
G54D244*X141795Y118527D02*X141860Y118592D01*
X141795Y116366D02*Y118527D01*
G54D241*X139109Y88724D02*Y93833D01*
G54D243*X161510Y91082D02*X162689Y89903D01*
X161510Y94619D02*Y91082D01*
X165047Y93499D02*X149900Y108646D01*
X149083Y107046D02*X149883Y106246D01*
X133955Y119608D02*X134971Y118592D01*
X137100Y108646D02*X127200Y118546D01*
X126526Y116920D02*X136400Y107046D01*
X149119Y111911D02*Y118592D01*
X163082D02*Y118987D01*
X156008Y118592D02*X157196D01*
X160433Y115355D01*
X173425D01*
G54D244*X172441Y118307D02*X170255D01*
X169970Y118592D01*
G54D243*X173425Y115355D02*X177559Y119489D01*
X179331Y112992D02*X182480Y109843D01*
X173786Y112697D02*X179195Y107288D01*
X162689Y89903D02*X181553D01*
X182480Y109843D02*Y90887D01*
G54D241*X97648Y96388D02*X77801Y116234D01*
X89957Y90323D02*X75443Y104837D01*
X95093Y104444D02*Y98942D01*
X83303Y116234D02*X95093Y104444D01*
G54D243*X88422Y119368D02*X88428Y119362D01*
X88472Y119318D02*X88644Y119146D01*
G54D241*X86447Y93833D02*Y76934D01*
G54D242*X77408Y95012D02*Y76541D01*
G54D241*X89957Y80444D02*Y87125D01*
X77408Y67895D02*X89957Y80444D01*
Y84008D02*Y90323D01*
G54D243*X88644Y119146D02*X111831D01*
X111800D02*X111874D01*
X114000Y117020D01*
G54D242*X67583Y99728D02*Y33704D01*
G54D241*X77408Y27809D02*Y67895D01*
X31427Y27809D02*X77408D01*
X31427Y40385D02*Y27809D01*
X75443Y104837D02*X10598D01*
G54D242*X56579Y97763D02*Y32918D01*
X45182Y98156D02*Y32918D01*
G54D241*X37715Y104051D02*Y27809D01*
X32606Y104837D02*Y27809D01*
X23174Y48638D02*X31427Y40385D01*
X38501Y104837D02*X37715Y104051D01*
X27497Y104837D02*Y44315D01*
X21995Y104837D02*Y48638D01*
X16493Y104837D02*Y48638D01*
X10598D02*X23174D01*
X10598Y104837D02*Y48638D01*
X105311Y27809D02*Y43922D01*
X110027Y27809D02*Y43922D01*
X114743Y27809D02*Y43922D01*
X118673Y58856D02*X111599Y51782D01*
X118673Y60821D02*Y58856D01*
X89984Y39992D02*X118673D01*
X89984Y43922D02*X118673D01*
Y49031D02*X89984D01*
Y51782D02*Y27809D01*
X111599Y51782D02*X89984D01*
X152078Y27809D02*X89984D01*
X143825Y36062D02*X126533D01*
X122603Y31739D02*X148541D01*
X122210Y32132D02*X122603Y31739D01*
X110027Y69467D02*X92735D01*
X97844Y70253D02*X100988Y73397D01*
X93521Y70253D02*X97844D01*
X107276Y60428D02*X89984D01*
X100988Y73397D02*Y93440D01*
X89984Y66716D02*X93521Y70253D01*
X89984Y60428D02*Y66716D01*
X105311Y90689D02*Y60428D01*
X110027Y63179D02*X107276Y60428D01*
X110027Y85973D02*Y63179D01*
X126533Y36062D02*Y93636D01*
X122210D02*Y32132D01*
X118673Y89510D02*Y27809D01*
X102560Y93440D02*X110027Y85973D01*
X100595Y93440D02*X102560D01*
X95093Y98942D02*X100595Y93440D01*
X108652Y99532D02*X133410D01*
X134982Y93636D02*X135179Y93833D01*
X114546Y93636D02*X134982D01*
X152078Y80864D02*X135179Y97763D01*
X104132Y104051D02*X118673Y89510D01*
X104132Y104837D02*Y104051D01*
X128105Y104837D02*X104132D01*
G54D243*X127200Y118546D02*X114846D01*
X114673Y118719D01*
X113974Y117046D02*X114100Y116920D01*
X126526D01*
G54D241*X139109Y93833D02*X128105Y104837D01*
G54D244*X172173Y131918D02*X171939Y132151D01*
X174670Y131918D02*X172173D01*
G54D243*X177559Y119489D02*Y144489D01*
X179331Y142914D02*Y112992D01*
X149720Y106409D02*X161510Y94619D01*
X152471Y108374D02*X161117Y99728D01*
X179195Y93440D02*Y100398D01*
X165833Y99728D02*X172121Y93440D01*
X161117Y99728D02*X165833D01*
X152471Y122129D02*Y108374D01*
X149720Y122915D02*Y122926D01*
X152471Y122156D02*Y123141D01*
X161220Y120453D02*X163082Y118592D01*
Y118987D02*X166142Y122048D01*
X168517D01*
X171939Y125470D01*
X152471Y123141D02*X154331Y125000D01*
X157382D01*
X157480Y125099D01*
X161220Y126969D02*Y120453D01*
X157480Y127658D02*X160531D01*
X161220Y126969D01*
X157580Y130216D02*X160304D01*
X164425Y132776D02*X165050Y132151D01*
X164425Y132776D02*X155413D01*
X160304Y130216D02*X165050Y125470D01*
X155607Y130216D02*X158925D01*
X154231D02*X157184D01*
G54D244*X151181Y137008D02*X154921Y133268D01*
G54D243*X155413Y132776D02*X154823Y133366D01*
X148622Y135825D02*X154231Y130216D01*
X177559Y144489D02*X175591Y146457D01*
X183208Y146791D02*X179331Y142914D01*
G54D244*X167126Y144882D02*X170866D01*
Y141929D01*
X166339Y143504D02*X169535D01*
X169654Y143386D01*
X170866Y141929D02*X162134D01*
X164996Y144847D02*X166339Y143504D01*
X169654Y143386D02*X160678D01*
X165157Y145241D02*X165551Y144847D01*
X155118Y142126D02*X155315Y141929D01*
X162134D02*X158965Y145099D01*
X159217Y144847D02*X164996D01*
X160678Y143386D02*X160595Y143469D01*
X155315Y141929D02*X162598D01*
G54D243*X121798Y142153D02*X119119Y139474D01*
Y125303D02*Y139474D01*
X122067Y142422D02*X121516Y141871D01*
G54D244*X126203Y124943D02*X129797D01*
G54D243*X126673Y144981D02*X116650D01*
X102547Y147270D02*X100999D01*
X102547Y144711D02*X96669D01*
X105800Y137575D02*X103771Y135546D01*
X105138Y142422D02*X106457Y141103D01*
Y138232D01*
X105748Y137523D01*
X108071Y142048D02*Y133124D01*
X102953Y142422D02*X105138D01*
X102953Y144981D02*X105138D01*
X108071Y142048D01*
X103771Y128417D02*Y135527D01*
X108081Y133114D02*X111992Y129203D01*
Y126938D01*
X107400Y122346D01*
X108071Y133124D02*X108137Y133058D01*
X107400Y122346D02*X98413D01*
X98113Y122646D01*
X92342Y122446D02*Y122304D01*
X93900Y120746D01*
X112646D01*
X112600D02*X112646D01*
X114800Y118592D01*
X103739Y128417D02*Y125356D01*
X103792Y125303D01*
X146850Y125785D02*X149720Y122915D01*
G54D244*X129797Y124943D02*X129800Y124946D01*
G54D243*X133858Y130217D02*Y132776D01*
Y132677D02*Y132778D01*
X126575Y144981D02*X132098D01*
X126575Y139863D02*X133563D01*
X122067Y142422D02*X130217D01*
X130906Y143111D01*
X132098Y144981D02*X133808Y146691D01*
X133858Y132778D02*X140697Y139617D01*
X148622Y146260D02*Y135825D01*
X137117Y143111D02*X140697Y146691D01*
X145829D01*
X146850Y145670D01*
X133563Y139863D02*X133808Y139617D01*
X130906Y143111D02*X137117D01*
X137008D02*X137117D01*
X146850Y145670D02*Y125785D01*
X161451Y281635D02*X161006Y282080D01*
X165136Y281635D02*X161451D01*
X162210Y276556D02*X165098D01*
X165136Y271400D02*X153863D01*
X143484Y273959D02*X140307D01*
X154572Y284194D02*X162210Y276556D01*
X143484Y284194D02*X154572D01*
X143528Y281591D02*X143484Y281635D01*
X153145Y281591D02*X143528D01*
X153088Y281648D02*X153212Y281524D01*
X153863Y271400D02*X147079Y264616D01*
X172022Y269716D02*X166922Y264616D01*
X172022Y273369D02*Y269716D01*
X165187Y276569D02*X165136Y276518D01*
X168823Y276569D02*X165187D01*
X165098Y276556D02*X165136Y276518D01*
X168874D02*X172022Y273369D01*
X165136Y279077D02*X171236D01*
X176922Y269344D02*X175410Y270856D01*
X176922Y264616D02*Y269344D01*
G54D244*X178912Y273369D02*Y279865D01*
G54D243*X179010Y286770D02*X178948Y286708D01*
X179010Y304742D02*Y286770D01*
X178953Y304799D02*X179010Y304742D01*
X177819Y305933D02*X179000Y304752D01*
X175410Y276478D02*X172024Y279865D01*
X171236Y279077D02*X172024Y279865D01*
X175410Y270856D02*Y276478D01*
X175456Y291957D02*Y295501D01*
X167090Y291662D02*X168567Y293138D01*
X161185Y291662D02*X167090D01*
G54D244*X150161D02*X160988D01*
G54D243*X169454Y289312D02*X172058Y286708D01*
X165136Y289312D02*X169454D01*
X168567Y293138D02*Y295894D01*
X166008Y305933D02*X177819D01*
X168567Y295894D02*X168504Y295957D01*
X168567Y295501D02*X175456Y302390D01*
X168504Y296597D02*Y296028D01*
G54D244*X143960Y212406D02*X141771Y214595D01*
X141795Y214571D02*X141710Y214656D01*
G54D243*X139039Y212429D02*Y217744D01*
X137912Y211302D02*X139039Y212429D01*
X142800Y217256D02*X145100Y214956D01*
G54D244*X143960Y209673D02*Y212406D01*
X141795Y207508D02*X143960Y209673D01*
X141795Y207705D02*Y214571D01*
G54D243*X145310Y209856D02*Y212956D01*
G54D244*X132375Y233886D02*X137079Y229182D01*
X113950Y233886D02*X132375D01*
X113950Y239102D02*X113842Y239210D01*
X113950Y232083D02*Y239102D01*
X124810Y198256D02*Y205956D01*
X123010Y196456D02*X124810Y198256D01*
G54D243*X122010Y206856D02*Y198956D01*
X129000Y212823D02*Y193728D01*
X127425Y214004D02*Y190215D01*
X125815Y210661D02*X122010Y206856D01*
X125815Y214756D02*Y210661D01*
G54D244*X123110Y211756D02*X119510Y208156D01*
G54D243*X128210Y220456D02*X117010Y209256D01*
X127510Y222056D02*X115410Y209956D01*
X127079Y228785D02*X121424Y223130D01*
X114456Y211302D02*X126810Y223656D01*
X114715Y213861D02*X126110Y225256D01*
G54D244*X123210Y211756D02*X123110D01*
G54D243*X117010Y201056D02*X114310Y198356D01*
X117010Y209256D02*Y201056D01*
X115410Y202056D02*X114410Y201056D01*
X115410Y209956D02*Y202056D01*
X128210Y220456D02*X141410D01*
X138252Y218532D02*X129590D01*
X139039Y217744D02*X138252Y218532D01*
X141390Y220456D02*X142090D01*
X142800Y219746D01*
Y217256D01*
X126110Y225256D02*X152996D01*
X125850Y214791D02*X129590Y218532D01*
X130038Y213861D02*X129000Y212823D01*
X134834Y213861D02*X130038D01*
X129841Y216420D02*X127425Y214004D01*
X134834Y216420D02*X129841D01*
X126810Y223656D02*X143490D01*
X127510Y222056D02*X142590D01*
X142610D02*X142790D01*
X143490Y223656D02*X146000Y221146D01*
X142790Y222056D02*X144400Y220446D01*
X146000Y221146D02*Y218646D01*
X146490Y218156D01*
X144400Y220446D02*Y217956D01*
X134834Y211302D02*X137912D01*
X139728Y206622D02*X142076D01*
X139116Y206010D02*X139728Y206622D01*
X139116Y204162D02*Y206010D01*
X139039Y204085D02*X139116Y204162D01*
X138580Y203626D02*X139110Y204156D01*
X134834Y203626D02*X138580D01*
X135236Y206201D02*X131791D01*
X131693Y206300D01*
X134834Y201067D02*X139990D01*
X134834Y198508D02*X140228D01*
X135236Y195965D02*X138287D01*
X139094Y195158D01*
Y193859D01*
X139764Y193189D01*
X140563D01*
X141598Y192154D01*
X140614Y189398D02*X143168D01*
X136671Y193341D02*X140614Y189398D01*
X133636Y193341D02*X136671D01*
G54D244*X136724Y186642D02*X136610Y186756D01*
X142386Y186642D02*X136724D01*
G54D243*X129000Y192941D02*X132149Y189791D01*
X129000Y193729D02*Y192941D01*
X127425Y187036D02*X127819Y186642D01*
X127425Y190185D02*Y187036D01*
X133330Y182311D02*X132149Y183492D01*
X142779Y182311D02*X133330D01*
X143168Y189398D02*X146010Y186556D01*
G54D244*X145141Y183886D02*X142386Y186642D01*
X147504Y183886D02*X145141D01*
X150690Y180700D02*X147504Y183886D01*
G54D243*X142900Y182311D02*X143235D01*
X132149Y189791D02*Y183492D01*
G54D244*X150690Y180669D02*Y180700D01*
G54D243*X146010Y186556D02*X166210D01*
X145929Y172469D02*X145928D01*
X143235Y182311D02*X148100Y177446D01*
X153508D01*
X154800Y178738D01*
X155100D01*
X166210Y186556D02*X168510Y184256D01*
X164957Y194556D02*X170780Y188733D01*
X164810Y194556D02*X164957D01*
X168510Y184256D02*X172310D01*
X170810Y182656D02*X165910D01*
G54D244*X168363Y165411D02*X168072Y165120D01*
X167416Y165776D02*X168072Y165120D01*
X159315Y165776D02*X167416D01*
G54D243*X169735Y166460D02*X168263Y164988D01*
G54D244*Y165311D02*X168072Y165120D01*
X166929Y167520D02*X161024D01*
X168363Y179687D02*Y165411D01*
Y179687D02*X166891D01*
X166929Y177756D02*Y167520D01*
X166891Y179687D02*X164764Y177559D01*
Y173229D01*
X158240Y166705D01*
Y165776D01*
X161024Y167520D02*X166142Y172638D01*
Y170079D01*
X163583Y167520D01*
G54D243*X171710Y181756D02*X170810Y182656D01*
X175063Y179948D02*Y184709D01*
Y184646D02*Y184709D01*
X176500Y186146D01*
X176590Y186236D02*X176515Y186161D01*
X172350Y184256D02*X172150D01*
X171710Y176806D02*Y181756D01*
X172110Y176406D02*X171710Y176806D01*
X175456Y166457D02*X175459Y166460D01*
X169735D02*X175459D01*
X178059Y170062D02*X175063Y173059D01*
X178059Y170062D02*Y166460D01*
X176590Y193456D02*Y186236D01*
X173120Y194156D02*X175010Y192266D01*
Y186916D01*
X172350Y184256D01*
X123000Y168646D02*X121750Y169896D01*
X121700Y169946D02*X121800Y169846D01*
X123000Y168646D02*X125700D01*
X126800Y167546D01*
G54D241*X123882Y300412D02*X124118Y300176D01*
X123882Y296000D02*Y300412D01*
G54D243*X125624Y284194D02*X122191Y287626D01*
G54D241*X131078Y303656D02*Y296000D01*
X123882Y303656D02*X131078D01*
X124118Y300176D02*X130382D01*
X131078Y296000D02*X123882D01*
G54D244*X123685Y308492D02*X116204D01*
Y309673D02*X123685D01*
G54D243*X138410Y275856D02*X114555D01*
X140307Y273959D02*X138410Y275856D01*
G54D244*X126206Y272336D02*X128752D01*
X128884Y272469D01*
G54D243*X135774Y265922D02*X137079Y264616D01*
X135774Y272469D02*Y265922D01*
X114555Y275856D02*X113530Y274831D01*
X115894Y287035D02*X122191Y280738D01*
X113530Y287035D02*X115894D01*
G54D244*X123685Y294319D02*X116204D01*
G54D243*X139630Y303177D02*Y305933D01*
G54D244*X168567Y302390D02*X160299D01*
G54D243*X164827Y307114D02*X166008Y305933D01*
G54D244*X156165Y309083D02*X162071D01*
Y310854D02*X156165D01*
X162071Y307311D02*Y310854D01*
X156165Y307311D02*X162071D01*
G54D243*X164827Y326012D02*Y307114D01*
X163842Y326996D02*X164827Y326012D01*
X154590Y326996D02*X163842D01*
X153606Y326012D02*X154590Y326996D01*
G54D244*X156165Y310854D02*Y307311D01*
G54D243*X153606Y308099D02*Y326012D01*
X152622Y307114D02*X153606Y308099D01*
X147305Y279077D02*X147782Y278600D01*
X143484Y279077D02*X147305D01*
X136868Y281635D02*X135970Y280736D01*
X143484Y281635D02*X136868D01*
X136210Y294756D02*X129080Y287626D01*
X143110Y284194D02*X125624D01*
X143484D02*Y286753D01*
X137656Y289312D02*X135970Y287626D01*
X143484Y289312D02*X137656D01*
G54D244*X145929Y295894D02*X150161Y291662D01*
G54D243*X142910Y298556D02*X142810Y298656D01*
X142910Y296156D02*Y298556D01*
X141510Y294756D02*X142910Y296156D01*
X136210Y294756D02*X141510D01*
G54D244*X145929Y299043D02*Y295894D01*
G54D243*X140811Y307114D02*X152622D01*
X139630Y305933D02*X140811Y307114D01*
X142076Y206622D02*X145310Y209856D01*
X164810Y209356D02*Y194556D01*
X140228Y198508D02*X148221Y190515D01*
X156426D02*X148221D01*
X139990Y201067D02*X149124Y210201D01*
X156426D02*X149124D01*
X145710Y213356D02*X167310D01*
X145310Y212956D02*X145710Y213356D01*
X145410Y214956D02*X166510D01*
X145100D02*X145500D01*
X146110Y216556D02*X169410D01*
X146773Y218156D02*X168410D01*
X146490D02*X147000D01*
X144400Y217956D02*X145800Y216556D01*
X146300D01*
X167310Y213356D02*X168060Y212606D01*
X168710Y213256D02*X164810Y209356D01*
X170810Y213256D02*X168710D01*
X169210Y203356D02*X175403D01*
X174958Y217404D02*X170810Y213256D01*
X174958Y217785D02*Y217404D01*
X169410Y216556D02*X170110Y217256D01*
X168510Y221656D02*X171010Y224156D01*
X168510Y218256D02*Y221656D01*
X170110Y220956D02*X171710Y222556D01*
X170110Y217256D02*Y220956D01*
X168510Y218256D02*X168410Y218156D01*
X171710Y220256D02*X172410Y220956D01*
X152996Y225256D02*X156922Y229182D01*
X156559Y221287D02*Y221091D01*
X164453Y229182D02*X156559Y221287D01*
X166922Y229182D02*X164453D01*
X171710Y216556D02*Y220256D01*
X166510Y200656D02*X169210Y203356D01*
X166510Y197056D02*Y200656D01*
X169410Y194156D02*X166510Y197056D01*
X170110Y214956D02*X171710Y216556D01*
X166410Y214956D02*X170110D01*
X172510Y194156D02*X169410D01*
X175063Y194450D02*X175057Y194456D01*
X176057Y193456D02*X170780Y198733D01*
X172490Y194156D02*X172690D01*
X172660D02*X173120D01*
G54D244*X134315Y179162D02*X135693D01*
X137758Y160264D02*X137744Y160250D01*
X123882Y163101D02*X120101Y159320D01*
X124000Y165646D02*Y163219D01*
X123714Y162932D01*
G54D243*X130856Y163646D02*X140429D01*
X126800Y167546D02*Y156587D01*
X132937Y173847D02*X137858D01*
X133921D02*X136874D01*
G54D244*X137930Y168110D02*X134786Y171254D01*
G54D243*X133134Y174634D02*X133921Y173847D01*
G54D244*X126834Y174634D02*X132740D01*
X126638Y174831D02*X126834Y174634D01*
G54D243*X118810Y173956D02*X118280Y173426D01*
G54D244*X125354Y171254D02*X122996Y173612D01*
X134786Y171254D02*X125354D01*
G54D243*X109200Y169946D02*X121700D01*
X130856Y160250D02*Y166931D01*
G54D244*X103606Y159447D02*X103624Y159464D01*
X103606Y156721D02*Y159447D01*
G54D243*X98630Y155927D02*X93521D01*
X99416Y155141D02*X98630Y155927D01*
X99416Y151604D02*Y155141D01*
X93128Y176363D02*X96665Y172826D01*
X101381Y149639D02*X99416Y151604D01*
X101413Y149607D02*X101098Y149922D01*
X105512Y149607D02*X101413D01*
X84089Y177149D02*Y144923D01*
X87626Y180686D02*X84089Y177149D01*
X89592Y180686D02*X87626D01*
X85268Y128417D02*Y122522D01*
X88805Y131954D02*X85268Y128417D01*
X88990Y131954D02*X88805D01*
X100700Y178446D02*X109200Y169946D01*
X107276Y147281D02*Y147842D01*
X105512Y149607D01*
G54D244*X120245Y159464D02*X110813Y150032D01*
Y138242D02*Y150032D01*
Y137063D02*X114350Y133526D01*
X110813Y137849D02*Y137063D01*
G54D243*X131642Y153962D02*X134590Y156910D01*
X131642Y153569D02*Y153962D01*
X140500Y150146D02*X126812D01*
X126533Y150425D01*
X126800Y156587D02*X126533Y156320D01*
X116650Y144981D02*X114350Y147281D01*
X130856Y153569D02*X125813D01*
X123937Y151693D01*
Y149292D01*
X125827Y147402D01*
X126220D01*
X115529Y126845D02*X114350Y125666D01*
X115529Y132347D02*Y126845D01*
X114546Y133330D02*X115529Y132347D01*
G54D244*X114350Y122522D02*Y125273D01*
X115529Y121343D02*X114350Y122522D01*
X122603Y121343D02*X115922D01*
X126140Y124880D02*X122603Y121343D01*
G54D243*X133955Y125099D02*Y119608D01*
Y130216D02*X128332D01*
G54D244*X95879Y138635D02*X102560D01*
G54D243*X97028Y133103D02*X95879Y131954D01*
X103792Y133103D02*X97028D01*
X98237Y122522D02*X95879Y124880D01*
X92342Y127238D02*Y122522D01*
X93521Y128417D02*X92342Y127238D01*
X103739Y128417D02*X93521D01*
X133955Y125099D02*X130289D01*
X128332Y130216D02*X127319Y129203D01*
G54D241*X74264Y116234D02*X78980D01*
X74264Y113483D02*Y116234D01*
X80552Y113483D02*X74264D01*
X76229Y116234D02*X83303D01*
G54D244*X88990Y145316D02*Y138635D01*
G54D243*X84089Y144923D02*X77015Y137849D01*
X79176Y135295D02*X78587Y134705D01*
G54D241*X77015Y125273D02*Y139421D01*
G54D243*X91753Y135295D02*X79176D01*
X92342Y134705D02*X91753Y135295D01*
X92342Y129596D02*Y134705D01*
X88990Y126244D02*X92342Y129596D01*
X88990Y124880D02*Y126244D01*
X85268Y122522D02*X88412Y119378D01*
G54D241*X32606Y155534D02*Y139814D01*
X34571Y155534D02*X28676D01*
X50684Y139421D02*X34571Y155534D01*
X28676D02*Y143744D01*
X52256Y153569D02*X40466Y165359D01*
X77015Y134705D02*X43610D01*
X77015Y139421D02*X50684D01*
X77015Y130382D02*X43610D01*
X34178Y125273D02*X77015D01*
X34178D02*X75443D01*
X43610Y138635D02*X51077D01*
X43610Y146495D02*Y125273D01*
X37715Y152390D02*Y125273D01*
X34178Y138242D02*Y125273D01*
X28676Y143744D02*X34178Y138242D01*
X20816Y129596D02*Y136670D01*
X23174Y129596D02*X18851Y125273D01*
X24336Y129596D02*X23174D01*
X24336Y133150D02*X18065Y139421D01*
X24336Y130153D02*Y133150D01*
X18065Y125273D02*X11384D01*
X53042Y207017D02*X66011D01*
X53042Y203087D02*X66011D01*
X65500D02*X66000Y203587D01*
X53800Y218221D02*X54000Y218021D01*
X53800Y218246D02*X53788Y218234D01*
G54D243*X98630Y203472D02*X104040Y208882D01*
X106097Y212912D02*X99023D01*
X107276Y211733D02*X106097Y212912D01*
X107276Y210554D02*Y211733D01*
X109136Y208694D02*X107276Y210554D01*
X111984Y208694D02*X109136D01*
X107300Y194346D02*Y192346D01*
X106500Y191546D01*
X101600D01*
X100700Y190646D01*
G54D244*X71196Y189332D02*X67201Y185337D01*
X80159Y189332D02*X71196D01*
G54D243*X85901Y186445D02*X87700Y184646D01*
X91919D01*
X91960Y184606D01*
X85729Y193702D02*Y186617D01*
X86370Y185976D01*
X116315Y191561D02*X116380Y191626D01*
X116315Y185795D02*Y191561D01*
X114800Y184280D02*X116315Y185795D01*
X112778Y184280D02*X114800D01*
X96480Y181079D02*Y189124D01*
X93128Y183437D02*Y176363D01*
X91949Y184616D02*X93128Y183437D01*
X104040Y194906D02*Y194926D01*
X111794Y195920D02*X108874D01*
X107300Y194346D01*
X100700Y190646D02*Y178446D01*
X70334Y196799D02*X61688Y188153D01*
G54D244*X69941Y200336D02*X67190Y203087D01*
X75443Y207017D02*X82124D01*
X71120Y211340D02*X75443Y207017D01*
X71207Y211253D02*X71100Y211360D01*
X76622Y200336D02*X69941D01*
G54D243*X76622Y193448D02*X82916D01*
X83170Y193702D01*
X70386Y196851D02*X69795Y196260D01*
X82598Y196969D02*X70504D01*
X70114Y196579D01*
G54D244*X87795Y206496D02*X80709Y199410D01*
G54D243*X90846Y205216D02*X82598Y196969D01*
X98630Y200336D02*Y203472D01*
X104040Y194926D02*X98630Y200336D01*
X96480Y189124D02*X96468Y189136D01*
X93914Y191690D02*X97451Y188153D01*
X93914Y207803D02*Y191690D01*
X99023Y212912D02*X93914Y207803D01*
G54D244*X87795Y206890D02*Y206496D01*
G54D243*X90846Y211024D02*Y205216D01*
G54D241*X28676Y167324D02*X38501D01*
X28676Y179114D02*Y167324D01*
Y177149D02*X43610Y162215D01*
X36929Y188153D02*Y168896D01*
X33785Y188153D02*Y172040D01*
X28676Y188153D02*Y177149D01*
X44003Y188153D02*X28676D01*
X40466Y187367D02*Y165359D01*
X30248Y204266D02*X38108D01*
X30248Y210554D02*Y204266D01*
X77015Y162215D02*X43610D01*
X77015Y157892D02*X47933D01*
X77015Y153569D02*X52256D01*
X77015Y163394D02*Y153569D01*
X67976Y172433D02*X77015Y163394D01*
X69155Y170075D02*Y171254D01*
X40466Y165359D02*X67976D01*
X40466Y174791D02*X65618D01*
X69155Y171254D02*X60509Y179900D01*
X40466Y170075D02*X69155D01*
X40466Y179114D02*X61295D01*
X40466Y183830D02*X60509D01*
Y188153D02*X40466D01*
X60509Y179900D02*Y188153D01*
G54D244*X96913Y195372D02*X97451Y194834D01*
X96913Y197469D02*Y195372D01*
X88252Y173762D02*X88465Y173975D01*
X88252Y171681D02*Y173762D01*
X111323Y174145D02*X111153Y173975D01*
X111323Y180930D02*Y174145D01*
G54D243*X111606Y188102D02*X111323Y187820D01*
X111606Y193390D02*Y188102D01*
X112087Y198356D02*X111984Y198459D01*
X105771Y184280D02*X112858D01*
X104040Y186011D02*X105771Y184280D01*
X104040Y188018D02*Y186011D01*
G54D244*X104634Y202587D02*X104040Y201992D01*
G54D243*X88412Y210970D02*Y207017D01*
X88443Y211001D02*X88412Y210970D01*
X91002Y219748D02*Y211033D01*
G54D244*X107149Y202587D02*X104634D01*
G54D243*X106983Y206135D02*X106836Y206282D01*
X106934Y206184D02*X104237Y208882D01*
X108140Y203577D02*X107149Y202587D01*
X111984Y203577D02*X108140D01*
X111984Y206135D02*X106983D01*
G54D244*X102167Y223916D02*X98237Y227846D01*
X102167Y220379D02*Y223916D01*
X107276Y215270D02*X102167Y220379D01*
G54D243*X111984Y216371D02*Y221794D01*
G54D244*X123010Y173598D02*Y196456D01*
G54D243*X118810Y195756D02*Y173956D01*
X122010Y198956D02*X118810Y195756D01*
G54D244*X116310Y191856D02*X116315Y191851D01*
X116310Y196756D02*Y191856D01*
X119510Y199956D02*X116310Y196756D01*
X119510Y208156D02*Y199956D01*
G54D243*X114310Y198356D02*X112087D01*
X112022Y201056D02*X111984Y201018D01*
X114410Y201056D02*X112022D01*
X118280Y166538D02*X111516D01*
X111606Y211302D02*X114456D01*
X111606Y213861D02*X114715D01*
G54D244*X105968Y223863D02*X106566Y223265D01*
X105968Y226799D02*Y223863D01*
Y231403D02*X105288Y232083D01*
X105968Y226996D02*Y231403D01*
G54D243*X111984Y221794D02*X113456Y223265D01*
X113590Y223130D02*X113456Y223265D01*
G54D244*X108912Y239210D02*X106362Y241760D01*
X113203Y239210D02*X108912D01*
G54D243*X121424Y223130D02*X113590D01*
X100999Y147270D02*X95879Y152390D01*
X94700D02*X95486D01*
X88990Y158100D02*X94700Y152390D01*
X92342Y157106D02*X93521Y155927D01*
X96669Y144711D02*X88990Y152390D01*
Y159464D02*Y158100D01*
X92342Y162608D02*Y157106D01*
X88775Y166175D02*X92342Y162608D01*
X88465Y166175D02*X88775D01*
X96665Y160250D02*Y172826D01*
Y160250D02*X95879Y159464D01*
X111153Y160104D02*X110512Y159464D01*
X111153Y166175D02*Y160104D01*
X111516Y166538D02*X111153Y166175D01*
X102953Y170075D02*X96665D01*
G54D244*X47933Y226274D02*X55400Y233741D01*
X47147Y226274D02*X47933D01*
X46774Y243153D02*X52649Y237278D01*
X46774Y245138D02*Y243153D01*
G54D241*X43217Y229418D02*Y219200D01*
X46754Y220772D02*Y225881D01*
G54D244*X55302Y233644D02*X55605Y233946D01*
X97451Y227944D02*Y236492D01*
G54D241*X34964Y265967D02*Y237671D01*
X29462Y260465D02*Y238064D01*
Y246317D02*Y249854D01*
Y246317D02*X34964D01*
X29462Y260465D02*X34964Y265967D01*
X46774D02*Y247639D01*
X85464Y259090D02*X88805Y262430D01*
X81534Y259090D02*X85464D01*
X76622Y254177D02*X84875Y262430D01*
X76622Y259286D02*X79766Y262430D01*
X76622Y246317D02*Y259286D01*
X71906Y258500D02*Y246317D01*
X75836Y262430D02*X71906Y258500D01*
X87626Y262430D02*X75836D01*
X53042Y215270D02*Y203087D01*
X39680Y213305D02*X34571Y208196D01*
X44789Y210947D02*Y218807D01*
X38108Y204266D02*X44789Y210947D01*
X36143Y216449D02*X30248Y210554D01*
X39680Y230990D02*Y213305D01*
X46754Y225881D02*X34964Y237671D01*
X44789Y218807D02*X46754Y220772D01*
X36143Y231383D02*Y216449D01*
X29462Y238064D02*X36143Y231383D01*
X46774Y247639D02*X46036Y246901D01*
X21602Y231383D02*Y219986D01*
X24353Y222737D02*Y228632D01*
Y222737D02*X18065Y216449D01*
X24353Y228632D02*X18065Y234920D01*
X53800Y224946D02*Y218246D01*
G54D242*X39947Y314442D02*Y291016D01*
G54D241*X38894Y279924D02*X45853Y286883D01*
X43015Y284045D02*X45853Y286883D01*
X32213Y320594D02*Y311555D01*
X45853Y320594D02*X32213D01*
X45853Y286883D02*Y320594D01*
X29813Y309197D02*Y287540D01*
X23132Y302516D02*X34529Y313913D01*
X18065Y278543D02*Y125273D01*
X16493Y302516D02*Y125273D01*
X11384Y125666D02*Y302516D01*
G54D244*X55054Y266169D02*X54763Y266461D01*
X58330Y266169D02*X55054D01*
G54D241*X38894Y279722D02*Y279924D01*
X27104Y279722D02*X38894D01*
X26318Y284045D02*X43015D01*
X16493Y269111D02*X27104Y279722D01*
X25139Y289940D02*X18851Y283652D01*
X16493Y289940D02*X29813D01*
X16493Y294656D02*X29813D01*
X16493Y298979D02*X29813D01*
Y287540D02*X11384Y269111D01*
Y302516D02*X23132D01*
G54D244*X115023Y248847D02*X112267D01*
X115023Y244516D02*Y248847D01*
X112267Y244516D02*X115023D01*
X112267Y248847D02*Y244516D01*
X106362Y241760D02*Y259870D01*
X99275Y260068D02*X99473Y259870D01*
X99275Y264004D02*Y260068D01*
X93960Y269319D02*X99275Y264004D01*
G54D241*X81773Y289897D02*Y313913D01*
G54D244*X74079Y269319D02*X93960D01*
X71220Y266461D02*X74079Y269319D01*
X66967Y266461D02*X71220D01*
G54D241*X81731Y289505D02*Y276971D01*
X81773Y289547D02*X81731Y289505D01*
G54D244*X123882Y325421D02*Y294319D01*
X116204Y325421D02*X123685D01*
X116204Y294319D02*Y325421D01*
X93764Y244516D02*Y247075D01*
X91795Y244516D02*X93764D01*
X91795Y249043D02*Y244516D01*
X93764Y249043D02*X91795D01*
X93764Y246681D02*Y249043D01*
X97451Y239243D02*Y236099D01*
X88412Y239243D02*X97451D01*
X86447Y237278D02*X88412Y239243D01*
G54D243*X83696Y227846D02*X90770D01*
G54D241*X57758Y221558D02*X66011D01*
X55793Y222737D02*Y218021D01*
G54D243*X76964Y206775D02*X81664D01*
X83326Y208437D02*X81664Y206775D01*
X83326Y211033D02*Y208437D01*
X85885Y217965D02*Y211033D01*
X127079Y229182D02*Y228785D01*
G54D244*X89984Y237278D02*X97451Y229811D01*
X91556Y237278D02*X97451Y231383D01*
X93914Y237278D02*X97451Y233741D01*
Y236492D02*X96665Y237278D01*
X52649D02*X96665D01*
G54D243*X85885Y217965D02*X83964Y219886D01*
G54D244*X71100Y231146D02*X68300Y233946D01*
X55605D02*X68300D01*
G54D241*X66000Y228846D02*X57700D01*
X56400Y225146D02*X63200D01*
X58700Y228846D02*X57700D01*
X58800D02*X57700D01*
X55793Y218021D02*X66011D01*
X53042Y212519D02*X66011D01*
G54D243*X76964Y206775D02*X76664Y206475D01*
G54D244*X71100Y211360D02*Y231146D01*
G54D241*X66000Y203587D02*Y228846D01*
X55793Y218021D02*X53042Y215270D01*
X57700Y228846D02*X53800Y224946D01*
G54D244*X169762Y150425D02*X169779D01*
X173500Y154146D01*
X175500D01*
G54D243*X178091Y151655D02*X175600Y154146D01*
X180649Y149015D02*Y152295D01*
X181500Y153146D01*
X178091Y149015D02*Y151655D01*
X175591Y146457D02*Y148956D01*
X175532Y149015D01*
X175401Y162472D02*X175658Y162215D01*
X175401Y166402D02*Y162472D01*
X183159Y166460D02*Y167573D01*
X183208Y149015D02*Y146791D01*
X180559Y171863D02*X181756Y173059D01*
X180559Y171863D02*Y166460D01*
G54D244*X175500Y154146D02*Y163046D01*
G54D243*X181846Y209799D02*X175403Y203356D01*
X182510Y193456D02*X176057D01*
X186010Y190156D02*X186110Y190256D01*
X186010Y185756D02*Y190156D01*
X181756Y181502D02*X186010Y185756D01*
X181756Y179948D02*Y181502D01*
X186710Y197656D02*X182510Y193456D01*
X185110Y203063D02*X180780Y198733D01*
X188310Y196263D02*X180780Y188733D01*
X184315Y176406D02*X172110D01*
X185299Y175421D02*X184315Y176406D01*
X185299Y169713D02*Y175421D01*
X183159Y167573D02*X185299Y169713D01*
X188310Y220056D02*Y196263D01*
Y221656D02*Y219956D01*
X185810Y224156D02*X188310Y221656D01*
X171010Y224156D02*X185810D01*
X185110Y222556D02*X186710Y220956D01*
X171710Y222556D02*X185110D01*
X172410Y220956D02*X184410D01*
X186710Y218756D02*Y197656D01*
X185110Y217956D02*Y203063D01*
X186710Y220956D02*Y218656D01*
X185110Y220256D02*Y217856D01*
X184410Y220956D02*X185110Y220256D01*
X181846Y217785D02*Y209799D01*
G54D244*X135693Y179162D02*X136678Y178177D01*
G54D243*X136874Y173847D02*X137267Y173453D01*
G54D244*X138251Y172469D02*X137661Y173059D01*
G54D243*X142699Y182311D02*X142986D01*
X141598Y179555D02*Y179376D01*
G54D244*X155181Y171681D02*X154393D01*
X145535Y172469D02*X138251D01*
G54D243*X149130Y175774D02*X150113Y174791D01*
X145200Y175774D02*X149130D01*
X141598Y179376D02*X145200Y175774D01*
G54D244*X159287Y175787D02*X155181Y171681D01*
X160163Y175787D02*X159287D01*
G54D243*X165910Y182656D02*X161992Y178738D01*
X154812D02*X161992D01*
X150113Y174791D02*Y168896D01*
G54D244*X140023Y160264D02*X137758D01*
X137930Y166931D02*Y168110D01*
G54D243*X147362Y161429D02*X142646D01*
X148541Y162608D02*X147362Y161429D01*
X148541Y167324D02*Y162608D01*
X150113Y168896D02*X148541Y167324D01*
G54D244*X143039Y166931D02*X145004Y164966D01*
X137745Y166931D02*X143039D01*
G54D243*X134590Y156910D02*X143836D01*
X142646Y161429D02*X140429Y163646D01*
G54D244*X148819Y159252D02*X148799D01*
X146457Y156910D01*
X141535D02*X141909D01*
G54D243*X140053Y127658D02*X149119Y118592D01*
X133955Y127658D02*X140053D01*
G54D244*X152078Y164966D02*Y156910D01*
X141467D02*X153454D01*
X152078Y164874D02*Y162511D01*
X148622Y159055D01*
X152078Y161024D02*Y159185D01*
X149803Y156910D01*
X153543D02*X158572D01*
X159843Y156300D02*Y156496D01*
X152078Y162008D02*X154260D01*
X158965Y157303D01*
X155799D01*
X152078Y161024D01*
X141909Y156910D02*X151181Y147638D01*
X159843Y156300D01*
X143996Y154823D02*X158366D01*
X145965Y152855D02*X156398D01*
X148031Y150788D02*X154331D01*
X151181Y157087D02*Y137008D01*
G54D243*X140406Y150146D02*X144539D01*
X144437D02*X144736D01*
X148622Y146260D01*
G54D244*X158572Y156910D02*X158965Y157303D01*
X168584Y157106D02*Y156773D01*
X165157Y153347D01*
X165551Y153740D02*X158465Y146654D01*
X163287Y151477D02*Y146949D01*
X161811Y146654D02*Y149607D01*
X161614Y149803D01*
X163780Y151969D02*X160433D01*
X155118Y146654D01*
X165354D02*X167126Y144882D01*
X165157Y153347D02*Y145241D01*
X163287Y146949D02*X163583Y146654D01*
X161811D01*
X165354D02*X155118D01*
Y142126D01*
G54D245*G36*
X177780Y191733D02*Y185733D01*
X183780D01*
Y191733D01*
X177780D01*
G37*
G54D241*X170780Y188733D03*
X180780Y198733D03*
X170780D03*
X180780Y208733D03*
X170780D03*
G54D246*X60509Y33704D03*
Y93940D03*
X135179Y33704D03*
Y93940D03*
G54D247*X82347Y277406D02*X88253D01*
G54D248*X81773Y315488D02*Y312338D01*
Y291472D02*Y288322D01*
G54D249*X83170Y194844D02*Y192560D01*
Y212166D02*Y209882D01*
X85729Y194844D02*Y192560D01*
Y212166D02*Y209882D01*
X88287Y194844D02*Y192560D01*
Y212166D02*Y209882D01*
X90846Y194844D02*Y192560D01*
Y212166D02*Y209882D01*
G54D250*X110053Y239210D02*X116353D01*
X110053Y244210D02*X116353D01*
X110053Y249210D02*X116353D01*
X110053Y254210D02*X116353D01*
G54D251*X106263Y259870D02*X106460D01*
X99374D02*X99571D01*
G54D250*X89553Y254210D02*X95853D01*
X89553Y249210D02*X95853D01*
X89553Y244210D02*X95853D01*
X89553Y239210D02*X95853D01*
G54D251*X113950Y233067D02*Y231099D01*
X105288Y233067D02*Y231099D01*
X113357Y223265D02*X113554D01*
X106468D02*X106665D01*
G54D252*X110236Y216437D02*X112992D01*
X110236Y213878D02*X112992D01*
X110236Y211319D02*X112992D01*
X110236Y208760D02*X112992D01*
X110236Y206201D02*X112992D01*
X110236Y203642D02*X112992D01*
X110236Y201083D02*X112992D01*
X110236Y198524D02*X112992D01*
X110236Y195965D02*X112992D01*
X110236Y193406D02*X112992D01*
G54D253*X156528Y229182D02*X157316D01*
X166528D02*X167316D01*
X176528D02*X177316D01*
G54D251*X174859Y217785D02*X175056D01*
X156089Y221318D02*X156286D01*
G54D253*X146685Y229182D02*X147473D01*
G54D251*X149200Y221318D02*X149397D01*
X171960Y286708D02*X172157D01*
X171925Y279865D02*X172122D01*
X178849Y286708D02*X179046D01*
X178814Y279865D02*X179011D01*
X175456Y302488D02*Y302291D01*
X168567Y302488D02*Y302291D01*
X175456Y295599D02*Y295402D01*
X168567Y295599D02*Y295402D01*
G54D254*X163798Y281565D02*X166516D01*
X163798Y284065D02*X166516D01*
X163798Y286565D02*X166516D01*
X163798Y289065D02*X166516D01*
G54D251*X171924Y273369D02*X172121D01*
X178813D02*X179010D01*
G54D253*X176528Y264616D02*X177316D01*
X166528D02*X167316D01*
G54D254*X163798Y274065D02*X166516D01*
X163798Y271565D02*X166516D01*
X163798Y276565D02*X166516D01*
X163798Y279065D02*X166516D01*
G54D251*X181748Y217785D02*X181945D01*
G54D253*X126685Y229182D02*X127473D01*
X136685D02*X137473D01*
G54D255*X148898Y209799D02*X159922D01*
X148898Y199956D02*X159922D01*
G54D251*X142275Y196561D02*Y196364D01*
G54D252*X133858Y193406D02*X136614D01*
X133858Y195965D02*X136614D01*
G54D251*X142275Y203450D02*Y203253D01*
G54D252*X133858Y198524D02*X136614D01*
X133858Y201083D02*X136614D01*
X133858Y203642D02*X136614D01*
X133858Y206201D02*X136614D01*
X133858Y208760D02*X136614D01*
X133858Y211319D02*X136614D01*
X133858Y213878D02*X136614D01*
X133858Y216437D02*X136614D01*
G54D251*X135871Y287626D02*X136068D01*
X128982D02*X129179D01*
X122191Y287725D02*Y287528D01*
G54D253*X112349Y274831D02*X114711D01*
X112349Y287035D02*X114711D01*
G54D251*X135871Y280736D02*X136068D01*
X128982D02*X129179D01*
X122191Y280836D02*Y280639D01*
X135675Y272469D02*X135872D01*
X128786D02*X128983D01*
G54D253*X126685Y264616D02*X127473D01*
X156528D02*X157316D01*
X146685D02*X147473D01*
X136685D02*X137473D01*
G54D256*X120141Y321484D02*Y314004D01*
Y303571D02*Y298059D01*
G54D257*X133330Y304358D02*Y297272D01*
X145928Y304358D02*Y297272D01*
X142779Y304358D02*Y297272D01*
X139629Y304358D02*Y297272D01*
X136479Y304358D02*Y297272D01*
G54D256*X159117Y321484D02*Y314004D01*
Y303571D02*Y298059D01*
G54D254*X142146Y289065D02*X144864D01*
X142146Y286565D02*X144864D01*
X142146Y284065D02*X144864D01*
X142146Y281565D02*X144864D01*
X142146Y279065D02*X144864D01*
X142146Y276565D02*X144864D01*
X142146Y274065D02*X144864D01*
X142146Y271565D02*X144864D01*
G54D258*X96030Y63076D02*X100030D01*
X96030Y34976D02*X100030D01*
G54D259*X165774Y77346D02*X171286D01*
X165774Y55298D02*X171286D01*
G54D251*X172121Y86650D02*Y86453D01*
Y93539D02*Y93342D01*
X165047Y86650D02*Y86453D01*
Y93539D02*Y93342D01*
X179195Y107386D02*Y107189D01*
Y100497D02*Y100300D01*
Y93539D02*Y93342D01*
Y86650D02*Y86453D01*
X169872Y118592D02*X170069D01*
X171841Y125470D02*X172038D01*
X164952D02*X165149D01*
X162983Y118592D02*X163180D01*
X149021Y111911D02*X149218D01*
X155910D02*X156107D01*
X155910Y118592D02*X156107D01*
X149021D02*X149218D01*
X141762D02*X141959D01*
G54D252*X156102Y125099D02*X158858D01*
X156102Y127658D02*X158858D01*
X156102Y130217D02*X158858D01*
X156102Y132776D02*X158858D01*
G54D247*X104620Y87919D02*Y82013D01*
G54D253*X103921Y104198D02*Y101836D01*
G54D247*X89266Y87919D02*Y82013D01*
G54D253*X91717Y104198D02*Y101836D01*
G54D251*X88891Y131954D02*X89088D01*
X95780D02*X95977D01*
X88891Y124880D02*X89088D01*
X95780D02*X95977D01*
G54D260*X103492Y125303D02*X104092D01*
X111692Y129203D02*X112292D01*
G54D252*X132480Y132776D02*X135236D01*
X132480Y130217D02*X135236D01*
X132480Y127658D02*X135236D01*
X132480Y125099D02*X135236D01*
G54D258*X46070Y249876D02*Y245876D01*
X74170Y249876D02*Y245876D01*
G54D259*X63772Y228318D02*Y224774D01*
G54D247*X82347Y262052D02*X88253D01*
G54D261*X45831Y269541D02*Y265211D01*
X34809Y269541D02*Y265211D01*
G54D253*X54763Y267642D02*Y265280D01*
X66967Y267642D02*Y265280D01*
X36557Y227062D02*Y224700D01*
G54D251*X83696Y227945D02*Y227748D01*
Y221056D02*Y220859D01*
X90770Y221056D02*Y220859D01*
Y227945D02*Y227748D01*
X76622Y214189D02*Y213992D01*
X97451Y227945D02*Y227748D01*
Y221056D02*Y220859D01*
G54D258*X43380Y179996D02*Y175996D01*
X15280Y179996D02*Y175996D01*
G54D251*X29336Y205153D02*X37210D01*
X29443Y150653D02*X37317D01*
G54D253*X36540Y131334D02*Y128972D01*
X24336Y131334D02*Y128972D01*
G54D251*X10438Y205153D02*X18312D01*
X10545Y150653D02*X18419D01*
G54D248*X34529Y315488D02*Y312338D01*
Y291472D02*Y288322D01*
G54D259*X46450Y228318D02*Y224774D01*
G54D251*X45477Y215270D02*X45674D01*
X52366D02*X52563D01*
X29256Y246798D02*X37130D01*
X10358D02*X18232D01*
G54D250*X52201Y188487D02*Y182187D01*
Y208987D02*Y202687D01*
X67201Y208987D02*Y202687D01*
X62201Y208987D02*Y202687D01*
X57201Y208987D02*Y202687D01*
Y188487D02*Y182187D01*
X62201Y188487D02*Y182187D01*
X67201Y188487D02*Y182187D01*
G54D259*X59767Y171544D02*X66853D01*
G54D253*X24353Y227062D02*Y224700D01*
G54D251*X95780Y152390D02*X95977D01*
X88891D02*X89088D01*
X88891Y145316D02*X89088D01*
X95780D02*X95977D01*
G54D259*X59767Y136110D02*X66853D01*
G54D251*X76166Y124505D02*Y124308D01*
Y117616D02*Y117419D01*
G54D260*X103492Y133103D02*X104092D01*
G54D252*X101575Y147540D02*X104331D01*
X101575Y144981D02*X104331D01*
X101575Y142422D02*X104331D01*
X101575Y139863D02*X104331D01*
G54D251*X89493Y180686D02*X89690D01*
X76622Y200435D02*Y200238D01*
Y193546D02*Y193349D01*
Y207300D02*Y207103D01*
G54D260*X88165Y173975D02*X88765D01*
X88165Y166175D02*X88765D01*
G54D251*X96382Y180686D02*X96579D01*
X97451Y188044D02*Y187847D01*
X104040Y188116D02*Y187919D01*
G54D260*X110853Y166175D02*X111453D01*
X110853Y173975D02*X111453D01*
X102653Y170075D02*X103253D01*
X96365D02*X96965D01*
G54D251*X97451Y194933D02*Y194736D01*
X104040Y195005D02*Y194808D01*
Y208980D02*Y208783D01*
Y202091D02*Y201894D01*
G54D249*X183208Y167479D02*Y165195D01*
X180649Y167479D02*Y165195D01*
X178091Y167479D02*Y165195D01*
X175532Y167479D02*Y165195D01*
G54D251*X167600Y165768D02*X169568D01*
X167600Y157106D02*X169568D01*
G54D249*X175532Y150157D02*Y147873D01*
X178091Y150157D02*Y147873D01*
X180649Y150157D02*Y147873D01*
X183208Y150157D02*Y147873D01*
G54D251*X169654Y150373D02*Y150176D01*
X136610Y187740D02*Y185772D01*
X127948Y187740D02*Y185772D01*
X136678Y179161D02*Y177193D01*
G54D262*X146790Y172769D02*Y172169D01*
G54D251*X145004Y165065D02*Y164868D01*
Y158176D02*Y157979D01*
G54D262*X154590Y172769D02*Y172169D01*
X150690Y180969D02*Y180369D01*
G54D255*X148898Y190113D02*X159922D01*
G54D251*X137646Y166931D02*X137843D01*
X130757D02*X130954D01*
X88891Y138635D02*X89088D01*
X95780D02*X95977D01*
G54D260*X118819Y133103D02*X119419D01*
X118819Y125303D02*X119419D01*
X127019Y129203D02*X127619D01*
G54D252*X125197Y139863D02*X127953D01*
X125197Y142422D02*X127953D01*
X125197Y144981D02*X127953D01*
X125197Y147540D02*X127953D01*
G54D251*X95780Y159464D02*X95977D01*
X88891D02*X89088D01*
X110414D02*X110611D01*
X103525D02*X103722D01*
X128016Y179161D02*Y177193D01*
X111323Y187918D02*Y187721D01*
Y181029D02*Y180832D01*
X118280Y173525D02*Y173328D01*
Y166636D02*Y166439D01*
X130757Y160250D02*X130954D01*
X137646D02*X137843D01*
X158868Y164966D02*X159065D01*
X151979D02*X152176D01*
G54D253*X157784Y157303D02*X160146D01*
G54D251*X181756Y180047D02*Y179850D01*
Y173158D02*Y172961D01*
X175063Y180047D02*Y179850D01*
Y173158D02*Y172961D01*
G54D262*X168063Y171887D02*X168663D01*
X168063Y179687D02*X168663D01*
X159863Y175787D02*X160463D01*
G54D251*X164952Y132151D02*X165149D01*
X171841D02*X172038D01*
X169654Y143484D02*Y143287D01*
G54D253*X157784Y145099D02*X160146D01*
G54D251*X130757Y153569D02*X130954D01*
X137646D02*X137843D01*
X134873Y118592D02*X135070D01*
X133710Y146691D02*X133907D01*
X140599D02*X140796D01*
X140599Y139617D02*X140796D01*
X133710D02*X133907D01*
G54D263*X164486Y28040D03*
Y32216D03*
X160310Y28040D03*
Y32216D03*
X164486Y44744D03*
Y36392D03*
Y40568D03*
X160310Y36392D03*
Y40568D03*
Y44744D03*
X140023Y160264D03*
X140220Y153374D03*
X186110Y190256D03*
X181500Y153146D03*
X163780Y149607D03*
X159055Y167323D03*
X141795Y116366D03*
X149720Y122915D03*
X155968Y109280D03*
X160331Y112697D03*
X174670Y131918D03*
X172441Y118307D03*
X168662Y48920D03*
X185366D03*
X181190D03*
X177014D03*
X172838D03*
X164486D03*
X160310D03*
Y53096D03*
Y57272D03*
X168662Y61448D03*
X164486D03*
X168662Y65624D03*
X164486D03*
X160310Y61448D03*
Y65624D03*
X185366Y61448D03*
Y53096D03*
Y57272D03*
X181190Y61448D03*
Y65624D03*
X177014Y61448D03*
Y65624D03*
X185366D03*
X181190Y53096D03*
Y57272D03*
X177014Y53096D03*
Y57272D03*
X172838Y61448D03*
Y65624D03*
X9974Y282776D03*
Y271640D03*
X12758Y288344D03*
Y266072D03*
X18326D03*
X25286Y277208D03*
X18326D03*
X12758D03*
X14846Y271640D03*
X19718D03*
X11366Y199256D03*
X16934D03*
Y210392D03*
X11366D03*
Y215960D03*
X16934D03*
X11366Y221528D03*
X16934D03*
Y227096D03*
X11366D03*
X16934Y232664D03*
Y238232D03*
Y243800D03*
Y254936D03*
Y260504D03*
X11366Y232664D03*
Y238232D03*
Y243800D03*
Y254936D03*
Y260504D03*
X25286Y282776D03*
X19718D03*
X14846D03*
X18326Y288344D03*
X25286D03*
Y293912D03*
Y299480D03*
Y305048D03*
X14150Y293912D03*
X19718D03*
X18326Y299480D03*
X12758D03*
X47558Y288344D03*
Y293912D03*
Y299480D03*
X41990D03*
Y293912D03*
X36422Y299480D03*
Y305048D03*
X30854Y299480D03*
Y305048D03*
X41990D03*
X47558D03*
Y310616D03*
Y316184D03*
X41990Y310616D03*
Y316184D03*
X47558Y321752D03*
X41990D03*
X36422D03*
X30854D03*
X11366Y126872D03*
X16934D03*
X11366Y132440D03*
Y138008D03*
Y143576D03*
X16934Y132440D03*
Y138008D03*
Y143576D03*
Y154712D03*
Y160280D03*
X11366Y154712D03*
Y160280D03*
Y165848D03*
Y188120D03*
Y193688D03*
X16934Y165848D03*
Y188120D03*
Y193688D03*
X30854Y282776D03*
X36422D03*
X41990D03*
Y288344D03*
X58330Y266169D03*
X113678Y188120D03*
X88252Y171681D03*
X111283Y177390D03*
X88842Y142154D03*
X134315Y179162D03*
X103606Y156721D03*
X126638Y174831D03*
X124000Y165646D03*
X126533Y156320D03*
X114350Y147281D03*
X110813Y137849D03*
X107323Y147323D03*
X101774Y137849D03*
X126614Y150709D03*
X157346Y173847D03*
X151441Y221287D03*
X154590Y197075D03*
X141598Y192154D03*
Y179555D03*
X141710Y214656D03*
X76834Y211642D03*
X124810Y205956D03*
X123210Y211756D03*
X131693Y206300D03*
X107149Y202587D03*
X105968Y226996D03*
X97307Y223453D03*
X114039Y246681D03*
X92976D03*
X96913Y197469D03*
X80159Y189332D03*
X89567Y193504D03*
X80906Y199607D03*
X107276Y215270D03*
X137079Y229182D03*
X130382Y295304D03*
X131078Y280688D03*
X124814Y302264D03*
Y309224D03*
X156830Y308528D03*
X161702D03*
X165182Y302264D03*
X130382D03*
X124814Y295304D03*
X115766D03*
Y302264D03*
Y309224D03*
Y316184D03*
Y323144D03*
X124814D03*
Y316184D03*
X126206Y272336D03*
X179102Y276512D03*
X147782Y278600D03*
X175456Y291957D03*
X153212Y281524D03*
X160500Y282146D03*
G54D264*G54D265*G54D266*G54D267*G54D268*G54D269*G54D268*G54D270*G54D265*G54D267*M02*
