G04 start of page 10 for group -4078 idx -4078 *
G04 Title: (unknown), bottomsilk *
G04 Creator: pcb 20110918 *
G04 CreationDate: So 13 Jul 2014 20:19:28 GMT UTC *
G04 For: ffg *
G04 Format: Gerber/RS-274X *
G04 PCB-Dimensions: 196850 334646 *
G04 PCB-Coordinate-Origin: lower left *
%MOIN*%
%FSLAX25Y25*%
%LNBOTTOMSILK*%
%ADD335C,0.0087*%
%ADD334C,0.0070*%
%ADD333C,0.0075*%
%ADD332C,0.0080*%
%ADD331C,0.0100*%
%ADD330C,0.0250*%
%ADD329C,0.0060*%
G54D329*X98533Y311525D02*X102533D01*
X100533Y313525D02*Y309525D01*
X104533Y311525D02*X100533Y315525D01*
Y307525D02*X104533Y311525D01*
X96533D02*X100533Y307525D01*
Y315525D02*X96533Y311525D01*
G54D330*X44570Y156008D02*X153070D01*
G54D331*X44070Y177452D02*X153570D01*
G54D329*X72533Y311525D02*X76533D01*
X78633D02*X84533D01*
X87533D02*X96533D01*
X78533D02*X74533Y315525D01*
X70533Y311525D01*
X74533Y307525D02*X78533Y311525D01*
X70533D02*X74533Y307525D01*
X85440Y309397D02*G75*G03X89682Y309397I2121J2121D01*G01*
X85440Y313639D02*G75*G03X85440Y309397I2121J-2121D01*G01*
G54D331*X87533Y312025D02*G75*G03X87033Y311525I0J-500D01*G01*
X88033D02*G75*G03X87533Y312025I-500J0D01*G01*
Y311025D02*G75*G02X87033Y311525I0J500D01*G01*
X88033D02*G75*G02X87533Y311025I-500J0D01*G01*
G54D329*X85440Y313639D02*G75*G02X89682Y313639I2121J-2121D01*G01*
G54D332*X152070Y181422D02*Y189422D01*
X149470D02*X148070Y188022D01*
Y182822D02*Y188022D01*
X149470Y181422D02*X148070Y182822D01*
X149470Y181422D02*X153070D01*
X149470Y189422D02*X153070D01*
X144670Y181422D02*Y189422D01*
X141670D02*X145670D01*
X141670D02*X140670Y188422D01*
Y186422D02*Y188422D01*
X141670Y185422D02*X140670Y186422D01*
X141670Y185422D02*X144670D01*
X134270Y189422D02*X133270Y188422D01*
X134270Y189422D02*X137270D01*
X138270Y188422D02*X137270Y189422D01*
X138270Y186422D02*Y188422D01*
Y186422D02*X137270Y185422D01*
X134270D02*X137270D01*
X134270D02*X133270Y184422D01*
Y182422D02*Y184422D01*
X134270Y181422D02*X133270Y182422D01*
X134270Y181422D02*X137270D01*
X138270Y182422D02*X137270Y181422D01*
X127270Y188422D02*X126270Y189422D01*
X123270D02*X126270D01*
X123270D02*X122270Y188422D01*
Y186422D02*Y188422D01*
X127270Y181422D02*X122270Y186422D01*
Y181422D02*X127270D01*
X119870Y182422D02*X118870Y181422D01*
X119870Y182422D02*Y188422D01*
X118870Y189422D01*
X116870D02*X118870D01*
X116870D02*X115870Y188422D01*
Y182422D02*Y188422D01*
X116870Y181422D02*X115870Y182422D01*
X116870Y181422D02*X118870D01*
X119870Y183422D02*X115870Y187422D01*
X113470Y187822D02*X111870Y189422D01*
Y181422D02*Y189422D01*
X110470Y181422D02*X113470D01*
G54D329*X152320Y169952D02*Y175952D01*
X150370D02*X149320Y174902D01*
Y171002D02*Y174902D01*
X150370Y169952D02*X149320Y171002D01*
X150370Y169952D02*X153070D01*
X150370Y175952D02*X153070D01*
G54D333*X147520Y174302D02*Y174452D01*
G54D329*Y169952D02*Y172202D01*
X143770Y172952D02*X143020Y172202D01*
X143770Y172952D02*X145270D01*
X146020Y172202D02*X145270Y172952D01*
X146020Y170702D02*Y172202D01*
Y170702D02*X145270Y169952D01*
X143770D02*X145270D01*
X143770D02*X143020Y170702D01*
X146020Y168452D02*X145270Y167702D01*
X143770D02*X145270D01*
X143770D02*X143020Y168452D01*
Y172952D01*
G54D333*X141220Y174302D02*Y174452D01*
G54D329*Y169952D02*Y172202D01*
X138970Y170702D02*Y175952D01*
Y170702D02*X138220Y169952D01*
Y173702D02*X139720D01*
X134470Y172952D02*X133720Y172202D01*
X134470Y172952D02*X135970D01*
X136720Y172202D02*X135970Y172952D01*
X136720Y170702D02*Y172202D01*
Y170702D02*X135970Y169952D01*
X133720Y170702D02*Y172952D01*
Y170702D02*X132970Y169952D01*
X134470D02*X135970D01*
X134470D02*X133720Y170702D01*
X131170D02*Y175952D01*
Y170702D02*X130420Y169952D01*
X125470Y167702D02*Y172202D01*
X126220Y172952D02*X125470Y172202D01*
X124720Y172952D01*
X123220D02*X124720D01*
X123220D02*X122470Y172202D01*
Y170702D02*Y172202D01*
X123220Y169952D02*X122470Y170702D01*
X123220Y169952D02*X124720D01*
X125470Y170702D02*X124720Y169952D01*
X120670Y170702D02*Y172202D01*
X119920Y172952D01*
X118420D02*X119920D01*
X118420D02*X117670Y172202D01*
Y170702D02*Y172202D01*
X118420Y169952D02*X117670Y170702D01*
X118420Y169952D02*X119920D01*
X120670Y170702D02*X119920Y169952D01*
X115870Y170702D02*Y172952D01*
Y170702D02*X115120Y169952D01*
X114370D02*X115120D01*
X114370D02*X113620Y170702D01*
Y172952D01*
Y170702D02*X112870Y169952D01*
X112120D02*X112870D01*
X112120D02*X111370Y170702D01*
Y172952D01*
X106570Y169952D02*X108820D01*
X109570Y170702D02*X108820Y169952D01*
X109570Y170702D02*Y172202D01*
X108820Y172952D01*
X107320D02*X108820D01*
X107320D02*X106570Y172202D01*
Y171452D02*X109570D01*
X106570D02*Y172202D01*
X104020Y169952D02*Y172202D01*
X103270Y172952D01*
X101770D02*X103270D01*
X104770D02*X104020Y172202D01*
X94270Y169952D02*X96520D01*
X94270D02*X93520Y170702D01*
X94270Y171452D02*X93520Y170702D01*
X94270Y171452D02*X96520D01*
X97270Y172202D02*X96520Y171452D01*
X97270Y172202D02*X96520Y172952D01*
X94270D02*X96520D01*
X94270D02*X93520Y172202D01*
X97270Y170702D02*X96520Y169952D01*
X91720Y170702D02*Y172952D01*
Y170702D02*X90970Y169952D01*
X89470D02*X90970D01*
X89470D02*X88720Y170702D01*
Y172952D01*
X86170Y167702D02*Y172202D01*
X86920Y172952D02*X86170Y172202D01*
X85420Y172952D01*
X83920D02*X85420D01*
X83920D02*X83170Y172202D01*
Y170702D02*Y172202D01*
X83920Y169952D02*X83170Y170702D01*
X83920Y169952D02*X85420D01*
X86170Y170702D02*X85420Y169952D01*
X80620Y167702D02*Y172202D01*
X81370Y172952D02*X80620Y172202D01*
X79870Y172952D01*
X78370D02*X79870D01*
X78370D02*X77620Y172202D01*
Y170702D02*Y172202D01*
X78370Y169952D02*X77620Y170702D01*
X78370Y169952D02*X79870D01*
X80620Y170702D02*X79870Y169952D01*
X75820Y170702D02*Y175952D01*
Y170702D02*X75070Y169952D01*
X73570Y170702D02*Y172952D01*
Y170702D02*X72820Y169952D01*
X70570Y168452D02*Y172952D01*
X71320Y167702D02*X70570Y168452D01*
X71320Y167702D02*X72820D01*
X73570Y168452D02*X72820Y167702D01*
X71320Y169952D02*X72820D01*
X71320D02*X70570Y170702D01*
X153070Y160202D02*X152320Y159452D01*
X153070Y160202D02*Y164702D01*
X152320Y165452D01*
X150820D02*X152320D01*
X150820D02*X150070Y164702D01*
Y160202D02*Y164702D01*
X150820Y159452D02*X150070Y160202D01*
X150820Y159452D02*X152320D01*
X153070Y160952D02*X150070Y163952D01*
X142570Y162452D02*X145570D01*
X138070Y164702D02*X137320Y165452D01*
X135070D02*X137320D01*
X135070D02*X134320Y164702D01*
Y163202D02*Y164702D01*
X138070Y159452D02*X134320Y163202D01*
Y159452D02*X138070D01*
X132520Y160202D02*X131770Y159452D01*
X132520Y160202D02*Y164702D01*
X131770Y165452D01*
X130270D02*X131770D01*
X130270D02*X129520Y164702D01*
Y160202D02*Y164702D01*
X130270Y159452D02*X129520Y160202D01*
X130270Y159452D02*X131770D01*
X132520Y160952D02*X129520Y163952D01*
X127720Y165452D02*X126220Y159452D01*
X124720Y165452D01*
X119470Y163202D02*X120220D01*
X119470Y161702D02*X120220D01*
X114970Y160202D02*X114220Y159452D01*
X114970Y160202D02*Y164702D01*
X114220Y165452D01*
X112720D02*X114220D01*
X112720D02*X111970Y164702D01*
Y160202D02*Y164702D01*
X112720Y159452D02*X111970Y160202D01*
X112720Y159452D02*X114220D01*
X114970Y160952D02*X111970Y163952D01*
X104470Y162452D02*X107470D01*
X99970Y164252D02*X98770Y165452D01*
Y159452D02*Y165452D01*
X97720Y159452D02*X99970D01*
X95920D02*Y163952D01*
X94870Y165452D01*
X93220D02*X94870D01*
X93220D02*X92170Y163952D01*
Y159452D02*Y163952D01*
Y162452D02*X95920D01*
X102070Y317332D02*X99820Y320332D01*
Y322582D01*
X100570Y323332D02*X99820Y322582D01*
X100570Y323332D02*X102070D01*
X102820Y322582D02*X102070Y323332D01*
X102820Y321082D02*Y322582D01*
Y321082D02*X102070Y320332D01*
X99820D02*X102070D01*
X92320D02*X95320D01*
X87820Y322582D02*X87070Y323332D01*
X84820D02*X87070D01*
X84820D02*X84070Y322582D01*
Y321082D02*Y322582D01*
X87820Y317332D02*X84070Y321082D01*
Y317332D02*X87820D01*
X82270Y319582D02*X79270Y323332D01*
X78520Y319582D02*X82270D01*
X79270Y317332D02*Y323332D01*
X76720D02*X75220Y317332D01*
X73720Y323332D01*
G54D334*X120766Y75155D02*Y82155D01*
X118491D02*X117266Y80930D01*
Y76380D02*Y80930D01*
X118491Y75155D02*X117266Y76380D01*
X118491Y75155D02*X121641D01*
X118491Y82155D02*X121641D01*
X111666Y75155D02*X114291D01*
X115166Y76030D02*X114291Y75155D01*
X115166Y76030D02*Y77780D01*
X114291Y78655D01*
X112541D02*X114291D01*
X112541D02*X111666Y77780D01*
Y76905D02*X115166D01*
X111666D02*Y77780D01*
X106066Y75155D02*X108691D01*
X106066D02*X105191Y76030D01*
X106066Y76905D02*X105191Y76030D01*
X106066Y76905D02*X108691D01*
X109566Y77780D02*X108691Y76905D01*
X109566Y77780D02*X108691Y78655D01*
X106066D02*X108691D01*
X106066D02*X105191Y77780D01*
X109566Y76030D02*X108691Y75155D01*
G54D335*X103091Y80230D02*Y80405D01*
G54D334*Y75155D02*Y77780D01*
X98716Y78655D02*X97841Y77780D01*
X98716Y78655D02*X100466D01*
X101341Y77780D02*X100466Y78655D01*
X101341Y76030D02*Y77780D01*
Y76030D02*X100466Y75155D01*
X98716D02*X100466D01*
X98716D02*X97841Y76030D01*
X101341Y73405D02*X100466Y72530D01*
X98716D02*X100466D01*
X98716D02*X97841Y73405D01*
Y78655D01*
X94866Y75155D02*Y77780D01*
X93991Y78655D01*
X93116D02*X93991D01*
X93116D02*X92241Y77780D01*
Y75155D02*Y77780D01*
X95741Y78655D02*X94866Y77780D01*
X86641Y75155D02*X89266D01*
X90141Y76030D02*X89266Y75155D01*
X90141Y76030D02*Y77780D01*
X89266Y78655D01*
X87516D02*X89266D01*
X87516D02*X86641Y77780D01*
Y76905D02*X90141D01*
X86641D02*Y77780D01*
X81041Y75155D02*Y82155D01*
X81916Y75155D02*X81041Y76030D01*
X81916Y75155D02*X83666D01*
X84541Y76030D02*X83666Y75155D01*
X84541Y76030D02*Y77780D01*
X83666Y78655D01*
X81916D02*X83666D01*
X81916D02*X81041Y77780D01*
X75791Y75155D02*Y82155D01*
Y76030D02*X74916Y75155D01*
X73166D02*X74916D01*
X73166D02*X72291Y76030D01*
Y77780D01*
X73166Y78655D02*X72291Y77780D01*
X73166Y78655D02*X74916D01*
X75791Y77780D02*X74916Y78655D01*
X70191Y76030D02*Y78655D01*
Y76030D02*X69316Y75155D01*
X66691Y73405D02*Y78655D01*
X67566Y72530D02*X66691Y73405D01*
X67566Y72530D02*X69316D01*
X70191Y73405D02*X69316Y72530D01*
X67566Y75155D02*X69316D01*
X67566D02*X66691Y76030D01*
G54D332*X145296Y53377D02*Y61377D01*
X141296D02*X145296D01*
X142296Y57777D02*X145296D01*
X137896Y53377D02*Y56377D01*
X136896Y57377D01*
X134896D02*X136896D01*
X138896D02*X137896Y56377D01*
G54D331*X132496Y59177D02*Y59377D01*
G54D332*Y53377D02*Y56377D01*
X126496Y53377D02*Y61377D01*
X127496Y53377D02*X126496Y54377D01*
X127496Y53377D02*X129496D01*
X130496Y54377D02*X129496Y53377D01*
X130496Y54377D02*Y56377D01*
X129496Y57377D01*
X127496D02*X129496D01*
X127496D02*X126496Y56377D01*
X123096Y53377D02*Y56377D01*
X122096Y57377D01*
X120096D02*X122096D01*
X124096D02*X123096Y56377D01*
G54D331*X117696Y59177D02*Y59377D01*
G54D332*Y53377D02*Y56377D01*
X115696Y53377D02*Y61377D01*
Y56377D02*X112696Y53377D01*
X115696Y56377D02*X113696Y58377D01*
X106696Y53377D02*Y61377D01*
X102696D02*X106696D01*
X103696Y57777D02*X106696D01*
X92696Y61377D02*X91696Y60377D01*
X92696Y61377D02*X95696D01*
X96696Y60377D02*X95696Y61377D01*
X96696Y54377D02*Y60377D01*
Y54377D02*X95696Y53377D01*
X92696D02*X95696D01*
X92696D02*X91696Y54377D01*
Y56377D01*
X92696Y57377D02*X91696Y56377D01*
X92696Y57377D02*X94696D01*
X86296D02*X85296Y56377D01*
X86296Y57377D02*X88296D01*
X89296Y56377D02*X88296Y57377D01*
X89296Y54377D02*Y56377D01*
Y54377D02*X88296Y53377D01*
X85296Y54377D02*Y57377D01*
Y54377D02*X84296Y53377D01*
X86296D02*X88296D01*
X86296D02*X85296Y54377D01*
X81896D02*Y57377D01*
Y54377D02*X80896Y53377D01*
X78896D02*X80896D01*
X78896D02*X77896Y54377D01*
Y57377D01*
X74496Y54377D02*Y61377D01*
Y54377D02*X73496Y53377D01*
Y58377D02*X75496D01*
X68496Y57377D02*X67496Y56377D01*
X68496Y57377D02*X70496D01*
X71496Y56377D02*X70496Y57377D01*
X71496Y54377D02*Y56377D01*
Y54377D02*X70496Y53377D01*
X67496Y54377D02*Y57377D01*
Y54377D02*X66496Y53377D01*
X68496D02*X70496D01*
X68496D02*X67496Y54377D01*
X60096Y53377D02*X63096D01*
X60096D02*X59096Y54377D01*
X60096Y55377D02*X59096Y54377D01*
X60096Y55377D02*X63096D01*
X64096Y56377D02*X63096Y55377D01*
X64096Y56377D02*X63096Y57377D01*
X60096D02*X63096D01*
X60096D02*X59096Y56377D01*
X64096Y54377D02*X63096Y53377D01*
X56696Y54377D02*Y56377D01*
X55696Y57377D01*
X53696D02*X55696D01*
X53696D02*X52696Y56377D01*
Y54377D02*Y56377D01*
X53696Y53377D02*X52696Y54377D01*
X53696Y53377D02*X55696D01*
X56696Y54377D02*X55696Y53377D01*
X49296D02*Y56377D01*
X48296Y57377D01*
X47296D02*X48296D01*
X47296D02*X46296Y56377D01*
Y53377D02*Y56377D01*
X50296Y57377D02*X49296Y56377D01*
M02*
